<svg width="24" height="24" viewBox="0 0 24 24" fill="none" xmlns="http://www.w3.org/2000/svg">
<path d="M20.977 19.09L20.589 17.558C20.5642 17.4603 20.5198 17.3687 20.4586 17.2886C20.3975 17.2085 20.3207 17.1416 20.233 17.092C20.1449 17.0416 20.0475 17.0093 19.9467 16.9969C19.846 16.9845 19.7437 16.9924 19.646 17.02L15.094 18.304L12 17L15.915 15.997C16.1823 15.7586 16.3759 15.4487 16.473 15.104L16.166 14L8 15H3V21H8L12.455 21.964C12.6972 21.986 12.9411 21.9803 13.182 21.947L20.442 19.993C20.6324 19.942 20.7954 19.8185 20.896 19.649C20.9457 19.5656 20.9784 19.4732 20.9923 19.3771C21.0062 19.281 21.001 19.1841 20.977 19.09ZM6 20H4V16H6V20ZM12.922 20.982C12.8769 20.9937 12.8306 20.9998 12.784 21C12.7453 21.0001 12.7068 20.9961 12.669 20.988L8 19.963V16.02L15.329 15.112L10 17L14.721 19.232L15.038 19.359L15.366 19.266L19.682 18.049L19.946 19.091L12.922 20.982ZM9 2V13L17.18 7.5L9 2ZM11 5.76L13.6 7.5L11 9.25V5.76Z" fill="black"/>
</svg>
