<svg width="16" height="16" viewBox="0 0 16 16" fill="none" xmlns="http://www.w3.org/2000/svg">
<path d="M8.64775 10.3134C8.45249 10.5087 8.45249 10.8253 8.64775 11.0205C8.84301 11.2158 9.15959 11.2158 9.35486 11.0205L12.0215 8.35388C12.1192 8.25625 12.168 8.12829 12.168 8.00033C12.168 7.93253 12.1545 7.86789 12.13 7.80893C12.1056 7.74996 12.0695 7.69471 12.0215 7.64677L9.35486 4.98011C9.15959 4.78484 8.84301 4.78484 8.64775 4.98011C8.45249 5.17537 8.45249 5.49195 8.64775 5.68721L10.4609 7.50033L4.0013 7.50033C3.72516 7.50033 3.5013 7.72418 3.5013 8.00033C3.5013 8.27647 3.72516 8.50033 4.0013 8.50033H10.4609L8.64775 10.3134Z" fill="black"/>
</svg>
