<svg width="78" height="27" viewBox="0 0 78 27" fill="none" xmlns="http://www.w3.org/2000/svg">
<path d="M3.18388 5.47238C-1.52321 10.8938 -0.944073 19.1044 4.47727 23.8114C9.89864 28.5185 18.1092 27.9394 22.8162 22.518C27.5233 17.0966 26.9443 8.88608 21.5229 4.17899C16.1015 -0.528027 7.89096 0.0509677 3.18388 5.47238Z" fill="#F96032"/>
<path d="M24.3355 0.298268C23.9378 0.384738 23.8379 0.891588 24.1452 1.15842C31.2346 7.31371 31.9919 18.0508 25.8366 25.1402C25.5697 25.4475 25.7398 25.9353 26.1457 25.9651C30.095 26.2549 34.1272 24.7431 36.923 21.5229C41.6301 16.1016 41.0512 7.89094 35.6297 3.18386C32.4095 0.387978 28.2051 -0.542973 24.3355 0.298268Z" fill="#2BABE2"/>
<path d="M36.3355 0.298268C35.9378 0.384738 35.8379 0.891588 36.1452 1.15842C43.2346 7.31371 43.9919 18.0508 37.8366 25.1402C37.5697 25.4475 37.7398 25.9353 38.1457 25.9651C42.095 26.2549 46.1272 24.7431 48.923 21.5229C53.6301 16.1016 53.0512 7.89094 47.6297 3.18386C44.4095 0.387978 40.2051 -0.542973 36.3355 0.298268Z" fill="#65C3A2"/>
<path d="M49.3355 0.298268C48.9378 0.384738 48.8379 0.891588 49.1452 1.15842C56.2346 7.31371 56.9919 18.0508 50.8366 25.1402C50.5697 25.4475 50.7398 25.9353 51.1457 25.9651C55.095 26.2549 59.1272 24.7431 61.923 21.5229C66.6301 16.1016 66.0512 7.89094 60.6297 3.18386C57.4095 0.387978 53.2051 -0.542973 49.3355 0.298268Z" fill="#FEE300"/>
<path d="M61.3355 0.298268C60.9378 0.384738 60.8379 0.891588 61.1452 1.15842C68.2346 7.31371 68.9919 18.0508 62.8366 25.1402C62.5697 25.4475 62.7398 25.9353 63.1457 25.9651C67.095 26.2549 71.1272 24.7431 73.923 21.5229C78.6301 16.1016 78.0512 7.89094 72.6297 3.18386C69.4095 0.387978 65.2051 -0.542973 61.3355 0.298268Z" fill="#304656"/>
</svg>
