<svg width="10" height="8" viewBox="0 0 10 8" fill="none" xmlns="http://www.w3.org/2000/svg">
<path d="M5.64384 6.31051C5.44858 6.50577 5.44858 6.82235 5.64384 7.01762C5.8391 7.21288 6.15569 7.21288 6.35095 7.01762L9.01762 4.35095C9.11525 4.25332 9.16406 4.12536 9.16406 3.9974C9.16406 3.9296 9.15057 3.86496 9.12612 3.806C9.10172 3.74703 9.06555 3.69178 9.01762 3.64384L6.35095 0.977176C6.15569 0.781913 5.8391 0.781913 5.64384 0.977176C5.44858 1.17244 5.44858 1.48902 5.64384 1.68428L7.45696 3.4974L0.997396 3.4974C0.721253 3.4974 0.497396 3.72125 0.497396 3.9974C0.497396 4.27354 0.721253 4.4974 0.997396 4.4974L7.45696 4.4974L5.64384 6.31051Z" fill="#2D3840"/>
</svg>
