<svg width="24" height="24" viewBox="0 0 24 24" fill="none" xmlns="http://www.w3.org/2000/svg">
<path d="M19.7132 15.8374V18.16C19.7141 18.3756 19.6699 18.589 19.5833 18.7866C19.4968 18.9842 19.3698 19.1615 19.2106 19.3073C19.0514 19.453 18.8635 19.564 18.6588 19.6331C18.4542 19.7022 18.2373 19.7278 18.0221 19.7084C15.635 19.4496 13.3421 18.6355 11.3275 17.3316C9.45312 16.1429 7.86402 14.557 6.67299 12.6864C5.36196 10.6666 4.54609 8.36705 4.29145 5.97398C4.27207 5.75989 4.29756 5.54411 4.36631 5.34039C4.43506 5.13667 4.54556 4.94946 4.69078 4.7907C4.836 4.63193 5.01274 4.50508 5.20977 4.41823C5.4068 4.33137 5.61979 4.28641 5.83518 4.28621H8.16242C8.53889 4.28251 8.90387 4.41556 9.18932 4.66056C9.47477 4.90556 9.66121 5.2458 9.7139 5.61784C9.81213 6.36114 9.9943 7.09095 10.2569 7.79337C10.3613 8.07047 10.3839 8.37163 10.322 8.66116C10.2601 8.95069 10.1164 9.21645 9.90784 9.42694L8.92265 10.4102C10.027 12.3485 11.635 13.9533 13.5771 15.0554L14.5623 14.0722C14.7732 13.864 15.0395 13.7206 15.3296 13.6588C15.6197 13.5971 15.9215 13.6196 16.1991 13.7238C16.9029 13.9859 17.6342 14.1677 18.379 14.2657C18.7558 14.3188 19.0999 14.5082 19.346 14.798C19.592 15.0878 19.7227 15.4577 19.7132 15.8374Z" stroke="white" stroke-linecap="round" stroke-linejoin="round"/>
</svg>
