<svg width="84" height="84" viewBox="0 0 84 84" fill="none" xmlns="http://www.w3.org/2000/svg">
<path d="M12.75 7.875V76.125H70.75V7.875H12.75ZM18.55 13.125H64.95V70.875H18.55V13.125ZM41.75 21C32.18 21 24.35 28.0875 24.35 36.75C24.35 45.4125 32.18 52.5 41.75 52.5C51.32 52.5 59.15 45.4125 59.15 36.75C59.15 28.0875 51.32 21 41.75 21ZM43.7452 26.4967C45.1488 26.712 46.4625 27.1005 47.6399 27.7279L47.8226 29.6126L46.4625 29.1217L45.375 29.9408L45.5577 32.319L48.3649 31.584L51.8101 32.5658L50.9024 33.9596L48.8202 32.8125L46.5524 33.1406L44.3774 34.6185L43.1101 38.0625L45.5548 39.8685C45.5548 39.8685 48.1387 39.4564 48.275 39.4564C48.4113 39.4564 49.3625 41.5905 49.3625 41.5905L47.9125 45.6094C46.0692 46.6691 43.9336 47.2377 41.75 47.25C41.0714 47.25 40.4015 47.1056 39.7548 47.0033L39.2125 46.1842L40.5726 41.5905L35.4077 38.0625H30.6024L30.2399 37.4062C30.2283 37.1805 30.15 36.9757 30.15 36.75C30.15 36.1856 30.2399 35.6423 30.3327 35.1094L32.7774 33.3874L37.9423 31.1719L37.1303 28.1374L39.3923 27.7279L40.3899 29.0404L44.2875 28.3841L43.7452 26.4967ZM33.2327 43.8874H34.1375L35.8601 45.7721C34.8869 45.2639 34.0016 44.6289 33.2327 43.8874ZM24.35 57.75V63H59.15V57.75H24.35Z" fill="black"/>
</svg>
