<svg width="84" height="84" viewBox="0 0 84 84" fill="none" xmlns="http://www.w3.org/2000/svg">
<path d="M35 7H49C50.8565 7 52.637 7.7375 53.9497 9.05025C55.2625 10.363 56 12.1435 56 14V21H70C71.8565 21 73.637 21.7375 74.9497 23.0503C76.2625 24.363 77 26.1435 77 28V47.355C74.9779 45.5 72.5949 44.0822 70 43.19V28H14V66.5H42.28C42.7 69.02 43.575 71.365 44.8 73.5H14C12.1435 73.5 10.363 72.7625 9.05025 71.4497C7.7375 70.137 7 68.3565 7 66.5V28C7 24.15 10.15 21 14 21H28V14C28 10.15 31.15 7 35 7ZM49 21V14H35V21H49ZM66.5 64.75V59.5H52.5V52.5H66.5V47.25L77 56L66.5 64.75ZM59.5 66.5H73.5V73.5H59.5V78.75L49 70L59.5 61.25V66.5Z" fill="black"/>
</svg>
