<svg width="84" height="84" viewBox="0 0 84 84" fill="none" xmlns="http://www.w3.org/2000/svg">
<path d="M23.0417 13.3422C21.1323 13.3422 19.301 14.1007 17.9509 15.4509C16.6007 16.801 15.8422 18.6323 15.8422 20.5417V24.6558C15.8422 28.63 19.0676 31.8554 23.0417 31.8554H45.669C47.5785 31.8554 49.4097 31.0969 50.7599 29.7467C52.1101 28.3965 52.8686 26.5652 52.8686 24.6558V20.5417C52.8686 18.6323 52.1101 16.801 50.7599 15.4509C49.4097 14.1007 47.5785 13.3422 45.669 13.3422H23.0417ZM22.0132 20.5417C22.0132 20.269 22.1216 20.0074 22.3145 19.8145C22.5074 19.6216 22.769 19.5132 23.0417 19.5132H45.669C45.9418 19.5132 46.2034 19.6216 46.3963 19.8145C46.5892 20.0074 46.6975 20.269 46.6975 20.5417V24.6558C46.6975 24.9286 46.5892 25.1902 46.3963 25.3831C46.2034 25.5759 45.9418 25.6843 45.669 25.6843H23.0417C22.769 25.6843 22.5074 25.5759 22.3145 25.3831C22.1216 25.1902 22.0132 24.9286 22.0132 24.6558V20.5417ZM34.3554 36.9979C32.9915 36.9979 31.6835 37.5397 30.719 38.5042C29.7546 39.4686 29.2128 40.7766 29.2128 42.1405C29.2128 43.5044 29.7546 44.8124 30.719 45.7769C31.6835 46.7413 32.9915 47.2831 34.3554 47.2831C35.7193 47.2831 37.0273 46.7413 37.9917 45.7769C38.9561 44.8124 39.4979 43.5044 39.4979 42.1405C39.4979 40.7766 38.9561 39.4686 37.9917 38.5042C37.0273 37.5397 35.7193 36.9979 34.3554 36.9979ZM29.2128 56.5397C29.2128 55.1758 29.7546 53.8678 30.719 52.9033C31.6835 51.9389 32.9915 51.3971 34.3554 51.3971C35.7193 51.3971 37.0273 51.9389 37.9917 52.9033C38.9561 53.8678 39.4979 55.1758 39.4979 56.5397C39.4979 57.9036 38.9561 59.2116 37.9917 60.176C37.0273 61.1404 35.7193 61.6823 34.3554 61.6823C32.9915 61.6823 31.6835 61.1404 30.719 60.176C29.7546 59.2116 29.2128 57.9036 29.2128 56.5397ZM19.9562 36.9979C18.5923 36.9979 17.2843 37.5397 16.3199 38.5042C15.3554 39.4686 14.8136 40.7766 14.8136 42.1405C14.8136 43.5044 15.3554 44.8124 16.3199 45.7769C17.2843 46.7413 18.5923 47.2831 19.9562 47.2831C21.3201 47.2831 22.6281 46.7413 23.5925 45.7769C24.557 44.8124 25.0988 43.5044 25.0988 42.1405C25.0988 40.7766 24.557 39.4686 23.5925 38.5042C22.6281 37.5397 21.3201 36.9979 19.9562 36.9979ZM14.8136 56.5397C14.8136 55.1758 15.3554 53.8678 16.3199 52.9033C17.2843 51.9389 18.5923 51.3971 19.9562 51.3971C21.3201 51.3971 22.6281 51.9389 23.5925 52.9033C24.557 53.8678 25.0988 55.1758 25.0988 56.5397C25.0988 57.9036 24.557 59.2116 23.5925 60.176C22.6281 61.1404 21.3201 61.6823 19.9562 61.6823C18.5923 61.6823 17.2843 61.1404 16.3199 60.176C15.3554 59.2116 14.8136 57.9036 14.8136 56.5397ZM48.7546 36.9979C47.3907 36.9979 46.0826 37.5397 45.1182 38.5042C44.1538 39.4686 43.612 40.7766 43.612 42.1405C43.612 43.5044 44.1538 44.8124 45.1182 45.7769C46.0826 46.7413 47.3907 47.2831 48.7546 47.2831C50.1185 47.2831 51.4265 46.7413 52.3909 45.7769C53.3553 44.8124 53.8971 43.5044 53.8971 42.1405C53.8971 40.7766 53.3553 39.4686 52.3909 38.5042C51.4265 37.5397 50.1185 36.9979 48.7546 36.9979ZM43.612 56.5397C43.612 55.1758 44.1538 53.8678 45.1182 52.9033C46.0826 51.9389 47.3907 51.3971 48.7546 51.3971C50.1185 51.3971 51.4265 51.9389 52.3909 52.9033C53.3553 53.8678 53.8971 55.1758 53.8971 56.5397C53.8971 57.9036 53.3553 59.2116 52.3909 60.176C51.4265 61.1404 50.1185 61.6823 48.7546 61.6823C47.3907 61.6823 46.0826 61.1404 45.1182 60.176C44.1538 59.2116 43.612 57.9036 43.612 56.5397ZM16.4058 1C12.983 1 9.70032 2.35971 7.28001 4.78001C4.85971 7.20032 3.5 10.483 3.5 13.9058V60.0901C3.5 63.5129 4.85971 66.7956 7.28001 69.2159C9.70032 71.6362 12.983 72.9959 16.4058 72.9959H52.305C55.7278 72.9959 59.0104 71.6362 61.4307 69.2159C63.8511 66.7956 65.2108 63.5129 65.2108 60.0901V13.9058C65.2108 10.483 63.8511 7.20032 61.4307 4.78001C59.0104 2.35971 55.7278 1 52.305 1H16.4058ZM9.67108 13.9058C9.67108 10.1867 12.6867 7.17108 16.4058 7.17108H52.305C56.0241 7.17108 59.0397 10.1867 59.0397 13.9058V60.0901C59.0397 63.8092 56.0241 66.8248 52.305 66.8248H16.4058C14.6196 66.8248 12.9066 66.1153 11.6436 64.8523C10.3806 63.5893 9.67108 61.8763 9.67108 60.0901V13.9058ZM15.0193 77.0565C15.9628 78.9298 17.4085 80.504 19.195 81.6031C20.9814 82.7023 23.0383 83.2832 25.1358 83.281H53.9012C65.832 83.281 75.5 73.613 75.5 61.6823V22.5988C75.5003 20.5022 74.9181 18.4468 73.8182 16.6619C72.7184 14.877 71.1442 13.4328 69.2713 12.4905C69.3125 12.9568 69.3317 13.4285 69.3289 13.9058V61.6823C69.3289 65.7739 67.7035 69.698 64.8103 72.5913C61.917 75.4845 57.9929 77.1099 53.9012 77.1099H16.4058C15.9395 77.1099 15.4746 77.0921 15.0193 77.0565Z" fill="black"/>
</svg>
