<svg width="130" height="56" viewBox="0 0 130 56" fill="none" xmlns="http://www.w3.org/2000/svg">
<path d="M12.76 29.2C9.18667 29.2 6.4 28.32 4.4 26.56C2.4 24.7733 1.4 22.16 1.4 18.72C1.4 15.2533 2.4 12.64 4.4 10.88C6.4 9.09333 9.18667 8.2 12.76 8.2H22.76C25.1067 8.2 26.8933 8.76 28.12 9.88C29.3733 10.9733 30 12.5467 30 14.6C30 18.7867 27.5867 20.88 22.76 20.88H7.64C8.2 23.36 9.90667 24.6 12.76 24.6H28.96V29.2H12.76ZM12.76 12.8C10.0133 12.8 8.32 13.96 7.68 16.28H22.48C23.0133 16.28 23.4267 16.12 23.72 15.8C24.04 15.48 24.2 15.04 24.2 14.48C24.2 13.36 23.6267 12.8 22.48 12.8H12.76ZM33.6063 29V0.399999H39.4063V29H33.6063ZM49.2816 29C47.1216 29 45.4682 28.4533 44.3216 27.36C43.1749 26.2667 42.6016 24.7067 42.6016 22.68C42.6016 20.68 43.1749 19.1333 44.3216 18.04C45.4682 16.9467 47.1216 16.4 49.2816 16.4H64.6416V15.44C64.6416 13.8133 63.8416 13 62.2416 13H45.2816V8.4H63.7616C66.1882 8.4 67.9082 8.96 68.9216 10.08C69.9349 11.1733 70.4416 12.72 70.4416 14.72V29H49.2816ZM50.3216 24.4H64.6416V21H50.3216C49.8149 21 49.4149 21.16 49.1216 21.48C48.8549 21.7733 48.7216 22.1733 48.7216 22.68C48.7216 23.1867 48.8549 23.6 49.1216 23.92C49.4149 24.24 49.8149 24.4 50.3216 24.4ZM80.3363 29C78.1763 29 76.5229 28.4533 75.3763 27.36C74.2296 26.2667 73.6563 24.7067 73.6563 22.68C73.6563 20.68 74.2296 19.1333 75.3763 18.04C76.5229 16.9467 78.1763 16.4 80.3363 16.4H95.6963V15.44C95.6963 13.8133 94.8963 13 93.2963 13H76.3363V8.4H94.8163C97.2429 8.4 98.9629 8.96 99.9763 10.08C100.99 11.1733 101.496 12.72 101.496 14.72V29H80.3363ZM81.3763 24.4H95.6963V21H81.3763C80.8696 21 80.4696 21.16 80.1763 21.48C79.9096 21.7733 79.7763 22.1733 79.7763 22.68C79.7763 23.1867 79.9096 23.6 80.1763 23.92C80.4696 24.24 80.8696 24.4 81.3763 24.4ZM105.911 29V8.4H121.671C123.991 8.4 125.698 8.98667 126.791 10.16C127.884 11.3067 128.431 12.8267 128.431 14.72V19H122.551V15.44C122.551 13.84 121.751 13.04 120.151 13.04H111.791V29H105.911Z" fill="#FE0002"/>
<path d="M16.28 34V35.94H14.2V34H16.28ZM14.44 38H16.04V48H14.44V38ZM18.5727 38H20.1727V48H18.5727V38ZM23.6127 37.8C24.146 37.8 24.626 37.88 25.0527 38.04C25.4793 38.2 25.8393 38.4333 26.1327 38.74C26.426 39.0467 26.6527 39.42 26.8127 39.86C26.9727 40.2867 27.0527 40.7733 27.0527 41.32V48H25.4527V41.72C25.4527 40.9467 25.2727 40.3667 24.9127 39.98C24.5527 39.5933 24.0127 39.4 23.2927 39.4C22.746 39.4 22.2393 39.54 21.7727 39.82C21.306 40.1 20.9193 40.4867 20.6127 40.98C20.3193 41.46 20.1393 42.02 20.0727 42.66L20.0527 41.5C20.1193 40.94 20.2527 40.4333 20.4527 39.98C20.666 39.5267 20.926 39.14 21.2327 38.82C21.5527 38.4867 21.9127 38.2333 22.3127 38.06C22.726 37.8867 23.1593 37.8 23.6127 37.8ZM30.3327 37.8C30.866 37.8 31.346 37.88 31.7727 38.04C32.1993 38.2 32.5593 38.4333 32.8527 38.74C33.146 39.0467 33.3727 39.42 33.5327 39.86C33.6927 40.2867 33.7727 40.7733 33.7727 41.32V48H32.1727V41.72C32.1727 40.9467 31.9927 40.3667 31.6327 39.98C31.2727 39.5933 30.7327 39.4 30.0127 39.4C29.466 39.4 28.9593 39.54 28.4927 39.82C28.026 40.1 27.6393 40.4867 27.3327 40.98C27.0393 41.46 26.8593 42.02 26.7927 42.66L26.7727 41.5C26.8393 40.94 26.9727 40.4333 27.1727 39.98C27.386 39.5267 27.646 39.14 27.9527 38.82C28.2727 38.4867 28.6327 38.2333 29.0327 38.06C29.446 37.8867 29.8793 37.8 30.3327 37.8ZM36.1656 38H37.7656V48H36.1656V38ZM41.2056 37.8C41.739 37.8 42.219 37.88 42.6456 38.04C43.0723 38.2 43.4323 38.4333 43.7256 38.74C44.019 39.0467 44.2456 39.42 44.4056 39.86C44.5656 40.2867 44.6456 40.7733 44.6456 41.32V48H43.0456V41.72C43.0456 40.9467 42.8656 40.3667 42.5056 39.98C42.1456 39.5933 41.6056 39.4 40.8856 39.4C40.339 39.4 39.8323 39.54 39.3656 39.82C38.899 40.1 38.5123 40.4867 38.2056 40.98C37.9123 41.46 37.7323 42.02 37.6656 42.66L37.6456 41.5C37.7123 40.94 37.8456 40.4333 38.0456 39.98C38.259 39.5267 38.519 39.14 38.8256 38.82C39.1456 38.4867 39.5056 38.2333 39.9056 38.06C40.319 37.8867 40.7523 37.8 41.2056 37.8ZM47.9256 37.8C48.459 37.8 48.939 37.88 49.3656 38.04C49.7923 38.2 50.1523 38.4333 50.4456 38.74C50.739 39.0467 50.9656 39.42 51.1256 39.86C51.2856 40.2867 51.3656 40.7733 51.3656 41.32V48H49.7656V41.72C49.7656 40.9467 49.5856 40.3667 49.2256 39.98C48.8656 39.5933 48.3256 39.4 47.6056 39.4C47.059 39.4 46.5523 39.54 46.0856 39.82C45.619 40.1 45.2323 40.4867 44.9256 40.98C44.6323 41.46 44.4523 42.02 44.3856 42.66L44.3656 41.5C44.4323 40.94 44.5656 40.4333 44.7656 39.98C44.979 39.5267 45.239 39.14 45.5456 38.82C45.8656 38.4867 46.2256 38.2333 46.6256 38.06C47.039 37.8867 47.4723 37.8 47.9256 37.8ZM55.7386 34V35.94H53.6586V34H55.7386ZM53.8986 38H55.4986V48H53.8986V38ZM61.6113 46.42C60.9046 46.42 60.2313 46.2533 59.5913 45.92C58.9646 45.5733 58.4513 45.08 58.0513 44.44C57.6646 43.8 57.4713 43.0333 57.4713 42.14C57.4713 41.2467 57.6646 40.48 58.0513 39.84C58.4379 39.1867 58.9446 38.6867 59.5713 38.34C60.1979 37.98 60.8779 37.8 61.6113 37.8C61.8379 37.8 62.0513 37.82 62.2513 37.86C62.4646 37.8867 62.6646 37.9333 62.8513 38H66.9113V39.72C66.3379 39.72 65.7646 39.6133 65.1913 39.4C64.6313 39.1867 64.1513 38.9667 63.7513 38.74L63.6713 38.66C64.1379 38.9133 64.5179 39.2133 64.8113 39.56C65.1179 39.9067 65.3446 40.3 65.4913 40.74C65.6513 41.1667 65.7313 41.6333 65.7313 42.14C65.7313 43.0333 65.5379 43.8 65.1513 44.44C64.7779 45.08 64.2779 45.5733 63.6513 45.92C63.0246 46.2533 62.3446 46.42 61.6113 46.42ZM64.5513 52V51.56C64.5513 50.8533 64.3646 50.34 63.9913 50.02C63.6313 49.7 63.0846 49.54 62.3513 49.54H60.3513C59.9113 49.54 59.5246 49.5 59.1913 49.42C58.8713 49.3533 58.6046 49.2467 58.3913 49.1C58.1779 48.9533 58.0179 48.7733 57.9113 48.56C57.8046 48.3467 57.7513 48.1067 57.7513 47.84C57.7513 47.3333 57.9046 46.9533 58.2113 46.7C58.5179 46.4333 58.8979 46.2667 59.3513 46.2C59.8046 46.1333 60.2379 46.1333 60.6513 46.2L61.6113 46.42C60.8913 46.46 60.3313 46.5333 59.9313 46.64C59.5446 46.7467 59.3513 46.9733 59.3513 47.32C59.3513 47.52 59.4246 47.6867 59.5713 47.82C59.7313 47.94 59.9646 48 60.2713 48H62.3513C63.0446 48 63.6779 48.0933 64.2513 48.28C64.8246 48.48 65.2846 48.8067 65.6313 49.26C65.9779 49.7267 66.1513 50.36 66.1513 51.16V52H64.5513ZM61.6113 44.92C62.0513 44.92 62.4579 44.8133 62.8313 44.6C63.2179 44.3867 63.5313 44.0733 63.7713 43.66C64.0113 43.2467 64.1313 42.74 64.1313 42.14C64.1313 41.54 64.0113 41.0333 63.7713 40.62C63.5446 40.1933 63.2379 39.8733 62.8513 39.66C62.4646 39.4333 62.0513 39.32 61.6113 39.32C61.1713 39.32 60.7579 39.4333 60.3713 39.66C59.9846 39.8733 59.6713 40.1867 59.4313 40.6C59.1913 41.0133 59.0713 41.5267 59.0713 42.14C59.0713 42.74 59.1913 43.2467 59.4313 43.66C59.6713 44.0733 59.9846 44.3867 60.3713 44.6C60.7579 44.8133 61.1713 44.92 61.6113 44.92ZM68.593 38H70.193V48H68.593V38ZM73.393 39.5C72.713 39.5 72.1396 39.6733 71.673 40.02C71.2196 40.3533 70.8596 40.7667 70.593 41.26C70.3396 41.74 70.173 42.2067 70.093 42.66L70.073 41.5C70.073 41.38 70.0996 41.18 70.153 40.9C70.2063 40.62 70.3063 40.3067 70.453 39.96C70.5996 39.6 70.793 39.26 71.033 38.94C71.2863 38.6067 71.6063 38.3333 71.993 38.12C72.3796 37.9067 72.8463 37.8 73.393 37.8V39.5ZM78.7745 48.2C77.9879 48.2 77.2612 47.98 76.5945 47.54C75.9412 47.0867 75.4145 46.4733 75.0145 45.7C74.6279 44.9133 74.4345 44.02 74.4345 43.02C74.4345 42.02 74.6345 41.1267 75.0345 40.34C75.4345 39.5533 75.9745 38.9333 76.6545 38.48C77.3479 38.0267 78.1212 37.8 78.9745 37.8C79.9079 37.8 80.6145 38.04 81.0945 38.52C81.5879 38.9867 81.9212 39.6133 82.0945 40.4C82.2812 41.1867 82.3745 42.06 82.3745 43.02C82.3745 43.5267 82.3212 44.08 82.2145 44.68C82.1079 45.2667 81.9212 45.8333 81.6545 46.38C81.4012 46.9133 81.0412 47.3533 80.5745 47.7C80.1079 48.0333 79.5079 48.2 78.7745 48.2ZM79.1745 46.68C79.8545 46.68 80.4145 46.5133 80.8545 46.18C81.3079 45.8467 81.6412 45.4067 81.8545 44.86C82.0679 44.3 82.1745 43.6867 82.1745 43.02C82.1745 42.2867 82.0612 41.6467 81.8345 41.1C81.6212 40.54 81.2879 40.1067 80.8345 39.8C80.3945 39.48 79.8412 39.32 79.1745 39.32C78.1745 39.32 77.4012 39.6733 76.8545 40.38C76.3079 41.0733 76.0345 41.9533 76.0345 43.02C76.0345 43.7267 76.1679 44.36 76.4345 44.92C76.7145 45.4667 77.0879 45.9 77.5545 46.22C78.0345 46.5267 78.5745 46.68 79.1745 46.68ZM82.1745 38H83.7745V48H82.3145C82.3145 48 82.3012 47.88 82.2745 47.64C82.2612 47.4 82.2412 47.12 82.2145 46.8C82.1879 46.48 82.1745 46.2133 82.1745 46V38ZM85.4812 38H91.3612V39.5H85.4812V38ZM87.6212 35.4H89.2212V48H87.6212V35.4ZM95.0316 34V35.94H92.9516V34H95.0316ZM93.1916 38H94.7916V48H93.1916V38ZM101.664 48.2C100.811 48.2 100.011 47.9933 99.2642 47.58C98.5175 47.1667 97.9109 46.5733 97.4442 45.8C96.9909 45.0133 96.7642 44.0867 96.7642 43.02C96.7642 41.9533 96.9909 41.0333 97.4442 40.26C97.9109 39.4733 98.5175 38.8667 99.2642 38.44C100.011 38.0133 100.811 37.8 101.664 37.8C102.518 37.8 103.311 38.0133 104.044 38.44C104.791 38.8667 105.391 39.4733 105.844 40.26C106.298 41.0333 106.524 41.9533 106.524 43.02C106.524 44.0867 106.298 45.0133 105.844 45.8C105.391 46.5733 104.791 47.1667 104.044 47.58C103.311 47.9933 102.518 48.2 101.664 48.2ZM101.664 46.7C102.224 46.7 102.751 46.56 103.244 46.28C103.738 46 104.138 45.5867 104.444 45.04C104.764 44.48 104.924 43.8067 104.924 43.02C104.924 42.2333 104.764 41.5667 104.444 41.02C104.138 40.46 103.738 40.0333 103.244 39.74C102.751 39.4467 102.224 39.3 101.664 39.3C101.104 39.3 100.571 39.4467 100.064 39.74C99.5709 40.02 99.1642 40.44 98.8442 41C98.5242 41.5467 98.3642 42.22 98.3642 43.02C98.3642 43.8067 98.5175 44.48 98.8242 45.04C99.1442 45.5867 99.5575 46 100.064 46.28C100.571 46.56 101.104 46.7 101.664 46.7ZM108.355 38H109.955V48H108.355V38ZM113.395 37.8C113.928 37.8 114.408 37.88 114.835 38.04C115.261 38.2 115.621 38.4333 115.915 38.74C116.208 39.0467 116.435 39.42 116.595 39.86C116.755 40.2867 116.835 40.7733 116.835 41.32V48H115.235V41.72C115.235 40.9467 115.055 40.3667 114.695 39.98C114.335 39.5933 113.795 39.4 113.075 39.4C112.528 39.4 112.021 39.54 111.555 39.82C111.088 40.1 110.701 40.4867 110.395 40.98C110.101 41.46 109.921 42.02 109.855 42.66L109.835 41.5C109.901 40.94 110.035 40.4333 110.235 39.98C110.448 39.5267 110.708 39.14 111.015 38.82C111.335 38.4867 111.695 38.2333 112.095 38.06C112.508 37.8867 112.941 37.8 113.395 37.8Z" fill="black"/>
<path d="M13.4898 33.6888C12.7657 34.5229 12.8548 35.786 13.6888 36.5102C14.5229 37.2343 15.786 37.1452 16.5102 36.3112C17.2343 35.4771 17.1453 34.214 16.3112 33.4898C15.4771 32.7657 14.214 32.8547 13.4898 33.6888Z" fill="#F96032"/>
<path d="M92.4898 33.6888C91.7657 34.5229 91.8548 35.786 92.6888 36.5102C93.5229 37.2343 94.786 37.1452 95.5102 36.3112C96.2343 35.4771 96.1453 34.214 95.3112 33.4898C94.4771 32.7657 93.214 32.8547 92.4898 33.6888Z" fill="#FEE300"/>
<path d="M53.4898 33.6888C52.7657 34.5229 52.8548 35.786 53.6888 36.5102C54.5229 37.2343 55.786 37.1452 56.5102 36.3112C57.2343 35.4771 57.1453 34.214 56.3112 33.4898C55.4771 32.7657 54.214 32.8547 53.4898 33.6888Z" fill="#2BABE2"/>
<line x1="45" y1="4" x2="128" y2="4" stroke="black" stroke-width="2"/>
</svg>
