<svg width="10" height="8" viewBox="0 0 10 8" fill="none" xmlns="http://www.w3.org/2000/svg">
<path d="M5.64775 6.31246C5.45249 6.50772 5.45249 6.82431 5.64775 7.01957C5.84301 7.21483 6.15959 7.21483 6.35486 7.01957L9.02152 4.3529C9.11915 4.25527 9.16797 4.12731 9.16797 3.99935C9.16797 3.93155 9.15448 3.86691 9.13003 3.80796C9.10563 3.74898 9.06946 3.69373 9.02152 3.6458L6.35486 0.979129C6.15959 0.783866 5.84301 0.783866 5.64775 0.979129C5.45249 1.17439 5.45249 1.49097 5.64775 1.68624L7.46086 3.49935L1.0013 3.49935C0.72516 3.49935 0.501302 3.72321 0.501302 3.99935C0.501302 4.27549 0.72516 4.49935 1.0013 4.49935L7.46086 4.49935L5.64775 6.31246Z" fill="white"/>
</svg>
