
<svg width="1177" height="406" viewBox="0 0 1177 406" fill="none" xmlns="http://www.w3.org/2000/svg" >
<style>
    circle:hover {
      fill: #ED1C24;
      transition: all ease 0.3s;
    }
  </style>
<path d="M60.6849 184.49V186.164H57.3549V197H55.3029V186.164H51.9549V184.49H60.6849ZM64.8151 188.522C65.1151 188.018 65.5111 187.628 66.0031 187.352C66.5071 187.064 67.1011 186.92 67.7851 186.92V189.044H67.2631C66.4591 189.044 65.8471 189.248 65.4271 189.656C65.0191 190.064 64.8151 190.772 64.8151 191.78V197H62.7631V187.082H64.8151V188.522ZM68.9873 191.996C68.9873 191 69.1913 190.118 69.5993 189.35C70.0193 188.582 70.5833 187.988 71.2913 187.568C72.0113 187.136 72.8033 186.92 73.6673 186.92C74.4473 186.92 75.1253 187.076 75.7013 187.388C76.2893 187.688 76.7573 188.066 77.1053 188.522V187.082H79.1753V197H77.1053V195.524C76.7573 195.992 76.2833 196.382 75.6833 196.694C75.0833 197.006 74.3993 197.162 73.6313 197.162C72.7793 197.162 71.9993 196.946 71.2913 196.514C70.5833 196.07 70.0193 195.458 69.5993 194.678C69.1913 193.886 68.9873 192.992 68.9873 191.996ZM77.1053 192.032C77.1053 191.348 76.9613 190.754 76.6733 190.25C76.3973 189.746 76.0313 189.362 75.5753 189.098C75.1193 188.834 74.6273 188.702 74.0993 188.702C73.5713 188.702 73.0793 188.834 72.6233 189.098C72.1673 189.35 71.7953 189.728 71.5073 190.232C71.2313 190.724 71.0933 191.312 71.0933 191.996C71.0933 192.68 71.2313 193.28 71.5073 193.796C71.7953 194.312 72.1673 194.708 72.6233 194.984C73.0913 195.248 73.5833 195.38 74.0993 195.38C74.6273 195.38 75.1193 195.248 75.5753 194.984C76.0313 194.72 76.3973 194.336 76.6733 193.832C76.9613 193.316 77.1053 192.716 77.1053 192.032ZM85.7045 195.164L88.5125 187.082H90.6905L86.9105 197H84.4625L80.7005 187.082H82.8965L85.7045 195.164ZM101.332 191.798C101.332 192.17 101.308 192.506 101.26 192.806H93.6816C93.7416 193.598 94.0356 194.234 94.5636 194.714C95.0916 195.194 95.7396 195.434 96.5076 195.434C97.6116 195.434 98.3916 194.972 98.8476 194.048H101.062C100.762 194.96 100.216 195.71 99.4236 196.298C98.6436 196.874 97.6716 197.162 96.5076 197.162C95.5596 197.162 94.7076 196.952 93.9516 196.532C93.2076 196.1 92.6196 195.5 92.1876 194.732C91.7676 193.952 91.5576 193.052 91.5576 192.032C91.5576 191.012 91.7616 190.118 92.1696 189.35C92.5896 188.57 93.1716 187.97 93.9156 187.55C94.6716 187.13 95.5356 186.92 96.5076 186.92C97.4436 186.92 98.2776 187.124 99.0096 187.532C99.7416 187.94 100.312 188.516 100.72 189.26C101.128 189.992 101.332 190.838 101.332 191.798ZM99.1896 191.15C99.1776 190.394 98.9076 189.788 98.3796 189.332C97.8516 188.876 97.1976 188.648 96.4176 188.648C95.7096 188.648 95.1036 188.876 94.5996 189.332C94.0956 189.776 93.7956 190.382 93.6996 191.15H99.1896ZM105.403 183.68V197H103.351V183.68H105.403Z" fill="#323A43"/>
<g filter="url(#filter0_d_1_109)">
<circle id="travel" cx="79" cy="77" r="75" fill="white"/>
</g>
<path d="M104 74.5C104 88.3071 92.8071 99.5 79 99.5M104 74.5C104 60.6929 92.8071 49.5 79 49.5M104 74.5H54M79 99.5C65.1929 99.5 54 88.3071 54 74.5M79 99.5C85.2532 92.6541 88.8069 83.7699 89 74.5C88.8069 65.2301 85.2532 56.3459 79 49.5M79 99.5C72.7468 92.6541 69.1931 83.7699 69 74.5C69.1931 65.2301 72.7468 56.3459 79 49.5M54 74.5C54 60.6929 65.1929 49.5 79 49.5" stroke="#2D3840" stroke-linecap="round" stroke-linejoin="round"/>
<path d="M239.936 322.146V325.818H244.256V327.492H239.936V331.326H244.796V333H237.884V320.472H244.796V322.146H239.936ZM246.64 327.996C246.64 327 246.844 326.118 247.252 325.35C247.672 324.582 248.236 323.988 248.944 323.568C249.664 323.136 250.462 322.92 251.338 322.92C251.986 322.92 252.622 323.064 253.246 323.352C253.882 323.628 254.386 324 254.758 324.468V319.68H256.828V333H254.758V331.506C254.422 331.986 253.954 332.382 253.354 332.694C252.766 333.006 252.088 333.162 251.32 333.162C250.456 333.162 249.664 332.946 248.944 332.514C248.236 332.07 247.672 331.458 247.252 330.678C246.844 329.886 246.64 328.992 246.64 327.996ZM254.758 328.032C254.758 327.348 254.614 326.754 254.326 326.25C254.05 325.746 253.684 325.362 253.228 325.098C252.772 324.834 252.28 324.702 251.752 324.702C251.224 324.702 250.732 324.834 250.276 325.098C249.82 325.35 249.448 325.728 249.16 326.232C248.884 326.724 248.746 327.312 248.746 327.996C248.746 328.68 248.884 329.28 249.16 329.796C249.448 330.312 249.82 330.708 250.276 330.984C250.744 331.248 251.236 331.38 251.752 331.38C252.28 331.38 252.772 331.248 253.228 330.984C253.684 330.72 254.05 330.336 254.326 329.832C254.614 329.316 254.758 328.716 254.758 328.032ZM268.505 323.082V333H266.453V331.83C266.129 332.238 265.703 332.562 265.175 332.802C264.659 333.03 264.107 333.144 263.519 333.144C262.739 333.144 262.037 332.982 261.413 332.658C260.801 332.334 260.315 331.854 259.955 331.218C259.607 330.582 259.433 329.814 259.433 328.914V323.082H261.467V328.608C261.467 329.496 261.689 330.18 262.133 330.66C262.577 331.128 263.183 331.362 263.951 331.362C264.719 331.362 265.325 331.128 265.769 330.66C266.225 330.18 266.453 329.496 266.453 328.608V323.082H268.505ZM270.528 328.032C270.528 327.012 270.732 326.118 271.14 325.35C271.56 324.57 272.136 323.97 272.868 323.55C273.6 323.13 274.44 322.92 275.388 322.92C276.588 322.92 277.578 323.208 278.358 323.784C279.15 324.348 279.684 325.158 279.96 326.214H277.746C277.566 325.722 277.278 325.338 276.882 325.062C276.486 324.786 275.988 324.648 275.388 324.648C274.548 324.648 273.876 324.948 273.372 325.548C272.88 326.136 272.634 326.964 272.634 328.032C272.634 329.1 272.88 329.934 273.372 330.534C273.876 331.134 274.548 331.434 275.388 331.434C276.576 331.434 277.362 330.912 277.746 329.868H279.96C279.672 330.876 279.132 331.68 278.34 332.28C277.548 332.868 276.564 333.162 275.388 333.162C274.44 333.162 273.6 332.952 272.868 332.532C272.136 332.1 271.56 331.5 271.14 330.732C270.732 329.952 270.528 329.052 270.528 328.032ZM281.321 327.996C281.321 327 281.525 326.118 281.933 325.35C282.353 324.582 282.917 323.988 283.625 323.568C284.345 323.136 285.137 322.92 286.001 322.92C286.781 322.92 287.459 323.076 288.035 323.388C288.623 323.688 289.091 324.066 289.439 324.522V323.082H291.509V333H289.439V331.524C289.091 331.992 288.617 332.382 288.017 332.694C287.417 333.006 286.733 333.162 285.965 333.162C285.113 333.162 284.333 332.946 283.625 332.514C282.917 332.07 282.353 331.458 281.933 330.678C281.525 329.886 281.321 328.992 281.321 327.996ZM289.439 328.032C289.439 327.348 289.295 326.754 289.007 326.25C288.731 325.746 288.365 325.362 287.909 325.098C287.453 324.834 286.961 324.702 286.433 324.702C285.905 324.702 285.413 324.834 284.957 325.098C284.501 325.35 284.129 325.728 283.841 326.232C283.565 326.724 283.427 327.312 283.427 327.996C283.427 328.68 283.565 329.28 283.841 329.796C284.129 330.312 284.501 330.708 284.957 330.984C285.425 331.248 285.917 331.38 286.433 331.38C286.961 331.38 287.453 331.248 287.909 330.984C288.365 330.72 288.731 330.336 289.007 329.832C289.295 329.316 289.439 328.716 289.439 328.032ZM296.598 324.756V330.246C296.598 330.618 296.682 330.888 296.85 331.056C297.03 331.212 297.33 331.29 297.75 331.29H299.01V333H297.39C296.466 333 295.758 332.784 295.266 332.352C294.774 331.92 294.528 331.218 294.528 330.246V324.756H293.358V323.082H294.528V320.616H296.598V323.082H299.01V324.756H296.598ZM301.946 321.768C301.574 321.768 301.262 321.642 301.01 321.39C300.758 321.138 300.632 320.826 300.632 320.454C300.632 320.082 300.758 319.77 301.01 319.518C301.262 319.266 301.574 319.14 301.946 319.14C302.306 319.14 302.612 319.266 302.864 319.518C303.116 319.77 303.242 320.082 303.242 320.454C303.242 320.826 303.116 321.138 302.864 321.39C302.612 321.642 302.306 321.768 301.946 321.768ZM302.954 323.082V333H300.902V323.082H302.954ZM309.95 333.162C309.014 333.162 308.168 332.952 307.412 332.532C306.656 332.1 306.062 331.5 305.63 330.732C305.198 329.952 304.982 329.052 304.982 328.032C304.982 327.024 305.204 326.13 305.648 325.35C306.092 324.57 306.698 323.97 307.466 323.55C308.234 323.13 309.092 322.92 310.04 322.92C310.988 322.92 311.846 323.13 312.614 323.55C313.382 323.97 313.988 324.57 314.432 325.35C314.876 326.13 315.098 327.024 315.098 328.032C315.098 329.04 314.87 329.934 314.414 330.714C313.958 331.494 313.334 332.1 312.542 332.532C311.762 332.952 310.898 333.162 309.95 333.162ZM309.95 331.38C310.478 331.38 310.97 331.254 311.426 331.002C311.894 330.75 312.272 330.372 312.56 329.868C312.848 329.364 312.992 328.752 312.992 328.032C312.992 327.312 312.854 326.706 312.578 326.214C312.302 325.71 311.936 325.332 311.48 325.08C311.024 324.828 310.532 324.702 310.004 324.702C309.476 324.702 308.984 324.828 308.528 325.08C308.084 325.332 307.73 325.71 307.466 326.214C307.202 326.706 307.07 327.312 307.07 328.032C307.07 329.1 307.34 329.928 307.88 330.516C308.432 331.092 309.122 331.38 309.95 331.38ZM322.13 322.92C322.91 322.92 323.606 323.082 324.218 323.406C324.842 323.73 325.328 324.21 325.676 324.846C326.024 325.482 326.198 326.25 326.198 327.15V333H324.164V327.456C324.164 326.568 323.942 325.89 323.498 325.422C323.054 324.942 322.448 324.702 321.68 324.702C320.912 324.702 320.3 324.942 319.844 325.422C319.4 325.89 319.178 326.568 319.178 327.456V333H317.126V323.082H319.178V324.216C319.514 323.808 319.94 323.49 320.456 323.262C320.984 323.034 321.542 322.92 322.13 322.92Z" fill="#323A43"/>
<g filter="url(#filter1_d_1_109)">
<circle cx="282" cy="214" r="75" fill="white"/>
</g>
<path d="M260.789 203.812H303.215V205.404H260.789V203.812Z" fill="#2D3840"/>
<path d="M260.789 195.203H303.215V196.795H260.789V195.203Z" fill="#2D3840"/>
<path d="M260.789 212.422H277.636V214.014H260.789V212.422Z" fill="#2D3840"/>
<path d="M268.044 225.413C267.957 225.413 267.867 225.404 267.774 225.383C267.296 225.278 266.927 224.882 266.802 224.393C266.247 224.62 265.716 224.906 265.217 225.248C265.008 225.391 264.744 225.426 264.505 225.342C264.266 225.258 264.081 225.067 264.008 224.825C263.789 224.114 264.099 223.481 264.325 223.02C264.434 222.797 264.584 222.491 264.55 222.383C264.53 222.319 264.262 222.193 263.93 222.246C263.465 222.32 263.025 222.622 262.725 223.074C262.425 223.527 262.319 224.049 262.431 224.506L260.887 224.888C260.667 223.999 260.853 223.018 261.398 222.195C261.944 221.371 262.775 220.817 263.68 220.673C264.633 220.521 265.761 220.9 266.072 221.916C266.188 222.297 266.153 222.656 266.061 222.977C266.592 222.75 267.144 222.569 267.713 222.435C268.03 222.36 268.363 222.487 268.549 222.756C268.715 222.995 268.736 223.303 268.61 223.56L273.099 221.553L273.747 223.007L268.793 225.223C268.634 225.294 268.366 225.413 268.045 225.413L268.044 225.413Z" fill="#2D3840"/>
<path d="M309.851 233.589H300.556C300.116 233.589 299.76 233.232 299.76 232.793V231.806C298.59 232.217 297.364 232.425 296.099 232.425C294.834 232.425 293.608 232.217 292.439 231.806V232.793C292.439 233.232 292.082 233.589 291.643 233.589H254.149C252.964 233.589 252 232.625 252 231.44V188.149C252 186.964 252.963 186 254.149 186H309.851C311.036 186 312 186.963 312 188.149V231.44C311.999 232.625 311.035 233.589 309.851 233.589L309.851 233.589ZM301.351 231.997H309.851C310.158 231.997 310.408 231.747 310.408 231.44V188.149C310.408 187.842 310.158 187.592 309.851 187.592H254.149C253.842 187.592 253.591 187.842 253.591 188.149V231.44C253.591 231.747 253.842 231.997 254.149 231.997H290.847V230.613C290.847 230.339 290.987 230.084 291.219 229.939C291.45 229.793 291.742 229.777 291.987 229.896C293.274 230.517 294.657 230.831 296.098 230.831C297.538 230.831 298.921 230.516 300.208 229.896C300.455 229.776 300.745 229.793 300.976 229.939C301.209 230.084 301.349 230.339 301.349 230.613L301.349 231.998L301.351 231.997Z" fill="#2D3840"/>
<path d="M296.095 226.002C293.536 226.002 291.453 223.92 291.453 221.36C291.453 218.801 293.536 216.719 296.095 216.719C298.654 216.719 300.737 218.801 300.737 221.36C300.736 223.92 298.654 226.002 296.095 226.002ZM296.095 218.311C294.413 218.311 293.045 219.679 293.045 221.361C293.045 223.042 294.413 224.411 296.095 224.411C297.777 224.411 299.145 223.043 299.145 221.361C299.144 219.679 297.776 218.311 296.095 218.311Z" fill="#2D3840"/>
<path d="M296.094 232.421C294.412 232.421 292.795 232.052 291.291 231.326C290.939 231.157 290.593 230.966 290.261 230.76C289.969 230.578 289.678 230.378 289.396 230.163C286.622 228.049 285.031 224.84 285.031 221.359C285.031 215.259 289.994 210.297 296.093 210.297C298.184 210.297 300.219 210.883 301.98 211.992C303.693 213.07 305.077 214.595 305.984 216.401C306.76 217.948 307.154 219.616 307.154 221.358C307.154 223.181 306.702 224.987 305.845 226.581C305.39 227.433 304.819 228.224 304.15 228.935C303.492 229.636 302.742 230.25 301.924 230.76C301.585 230.97 301.238 231.16 300.893 231.325C299.392 232.052 297.776 232.421 296.094 232.421ZM296.094 211.89C290.872 211.89 286.624 216.137 286.624 221.36C286.624 224.34 287.987 227.088 290.361 228.898C290.602 229.081 290.851 229.253 291.102 229.409C291.385 229.586 291.681 229.748 291.983 229.894C293.27 230.515 294.653 230.831 296.093 230.831C297.534 230.831 298.917 230.516 300.204 229.895C300.5 229.754 300.796 229.59 301.085 229.411C301.786 228.976 302.428 228.45 302.992 227.848C303.565 227.239 304.054 226.561 304.444 225.832C305.176 224.467 305.563 222.922 305.563 221.361C305.563 219.869 305.226 218.441 304.561 217.118C302.944 213.892 299.698 211.89 296.094 211.89Z" fill="#2D3840"/>
<path d="M300.553 241.225C300.396 241.225 300.24 241.179 300.105 241.087L296.096 238.363L292.087 241.087C291.844 241.253 291.528 241.27 291.267 241.133C291.007 240.995 290.844 240.725 290.844 240.429V230.609C290.844 230.335 290.985 230.08 291.216 229.935C291.447 229.789 291.738 229.773 291.986 229.892C293.273 230.513 294.656 230.827 296.096 230.827C297.536 230.827 298.919 230.512 300.206 229.892C300.453 229.772 300.743 229.789 300.976 229.935C301.207 230.08 301.348 230.335 301.348 230.609V240.429C301.348 240.724 301.185 240.994 300.925 241.133C300.808 241.195 300.68 241.225 300.553 241.225ZM296.096 236.606C296.252 236.606 296.408 236.652 296.543 236.743L299.757 238.927V231.802C298.587 232.213 297.361 232.421 296.096 232.421C294.831 232.421 293.605 232.213 292.435 231.802V238.927L295.649 236.743C295.784 236.651 295.939 236.606 296.096 236.606Z" fill="#2D3840"/>
<path d="M454.142 386.49V399H452.09V386.49H454.142ZM461.84 388.92C462.62 388.92 463.316 389.082 463.928 389.406C464.552 389.73 465.038 390.21 465.386 390.846C465.734 391.482 465.908 392.25 465.908 393.15V399H463.874V393.456C463.874 392.568 463.652 391.89 463.208 391.422C462.764 390.942 462.158 390.702 461.39 390.702C460.622 390.702 460.01 390.942 459.554 391.422C459.11 391.89 458.888 392.568 458.888 393.456V399H456.836V389.082H458.888V390.216C459.224 389.808 459.65 389.49 460.166 389.262C460.694 389.034 461.252 388.92 461.84 388.92ZM467.842 394.032C467.842 393.012 468.046 392.118 468.454 391.35C468.874 390.57 469.45 389.97 470.182 389.55C470.914 389.13 471.754 388.92 472.702 388.92C473.902 388.92 474.892 389.208 475.672 389.784C476.464 390.348 476.998 391.158 477.274 392.214H475.06C474.88 391.722 474.592 391.338 474.196 391.062C473.8 390.786 473.302 390.648 472.702 390.648C471.862 390.648 471.19 390.948 470.686 391.548C470.194 392.136 469.948 392.964 469.948 394.032C469.948 395.1 470.194 395.934 470.686 396.534C471.19 397.134 471.862 397.434 472.702 397.434C473.89 397.434 474.676 396.912 475.06 395.868H477.274C476.986 396.876 476.446 397.68 475.654 398.28C474.862 398.868 473.878 399.162 472.702 399.162C471.754 399.162 470.914 398.952 470.182 398.532C469.45 398.1 468.874 397.5 468.454 396.732C468.046 395.952 467.842 395.052 467.842 394.032ZM483.621 399.162C482.685 399.162 481.839 398.952 481.083 398.532C480.327 398.1 479.733 397.5 479.301 396.732C478.869 395.952 478.653 395.052 478.653 394.032C478.653 393.024 478.875 392.13 479.319 391.35C479.763 390.57 480.369 389.97 481.137 389.55C481.905 389.13 482.763 388.92 483.711 388.92C484.659 388.92 485.517 389.13 486.285 389.55C487.053 389.97 487.659 390.57 488.103 391.35C488.547 392.13 488.769 393.024 488.769 394.032C488.769 395.04 488.541 395.934 488.085 396.714C487.629 397.494 487.005 398.1 486.213 398.532C485.433 398.952 484.569 399.162 483.621 399.162ZM483.621 397.38C484.149 397.38 484.641 397.254 485.097 397.002C485.565 396.75 485.943 396.372 486.231 395.868C486.519 395.364 486.663 394.752 486.663 394.032C486.663 393.312 486.525 392.706 486.249 392.214C485.973 391.71 485.607 391.332 485.151 391.08C484.695 390.828 484.203 390.702 483.675 390.702C483.147 390.702 482.655 390.828 482.199 391.08C481.755 391.332 481.401 391.71 481.137 392.214C480.873 392.706 480.741 393.312 480.741 394.032C480.741 395.1 481.011 395.928 481.551 396.516C482.103 397.092 482.793 397.38 483.621 397.38ZM502.803 388.92C503.583 388.92 504.279 389.082 504.891 389.406C505.515 389.73 506.001 390.21 506.349 390.846C506.709 391.482 506.889 392.25 506.889 393.15V399H504.855V393.456C504.855 392.568 504.633 391.89 504.189 391.422C503.745 390.942 503.139 390.702 502.371 390.702C501.603 390.702 500.991 390.942 500.535 391.422C500.091 391.89 499.869 392.568 499.869 393.456V399H497.835V393.456C497.835 392.568 497.613 391.89 497.169 391.422C496.725 390.942 496.119 390.702 495.351 390.702C494.583 390.702 493.971 390.942 493.515 391.422C493.071 391.89 492.849 392.568 492.849 393.456V399H490.797V389.082H492.849V390.216C493.185 389.808 493.611 389.49 494.127 389.262C494.643 389.034 495.195 388.92 495.783 388.92C496.575 388.92 497.283 389.088 497.907 389.424C498.531 389.76 499.011 390.246 499.347 390.882C499.647 390.282 500.115 389.808 500.751 389.46C501.387 389.1 502.071 388.92 502.803 388.92ZM518.59 393.798C518.59 394.17 518.566 394.506 518.518 394.806H510.94C511 395.598 511.294 396.234 511.822 396.714C512.35 397.194 512.998 397.434 513.766 397.434C514.87 397.434 515.65 396.972 516.106 396.048H518.32C518.02 396.96 517.474 397.71 516.682 398.298C515.902 398.874 514.93 399.162 513.766 399.162C512.818 399.162 511.966 398.952 511.21 398.532C510.466 398.1 509.878 397.5 509.446 396.732C509.026 395.952 508.816 395.052 508.816 394.032C508.816 393.012 509.02 392.118 509.428 391.35C509.848 390.57 510.43 389.97 511.174 389.55C511.93 389.13 512.794 388.92 513.766 388.92C514.702 388.92 515.536 389.124 516.268 389.532C517 389.94 517.57 390.516 517.978 391.26C518.386 391.992 518.59 392.838 518.59 393.798ZM516.448 393.15C516.436 392.394 516.166 391.788 515.638 391.332C515.11 390.876 514.456 390.648 513.676 390.648C512.968 390.648 512.362 390.876 511.858 391.332C511.354 391.776 511.054 392.382 510.958 393.15H516.448Z" fill="#323A43"/>
<g filter="url(#filter2_d_1_109)">
<circle cx="485" cy="280" r="75" fill="white"/>
</g>
<path d="M461.397 286.278H508.562M461.397 291.87H508.562M461.397 297.568H508.562M509.934 279.736C510.145 280.264 509.828 280.686 509.301 280.686H460.764C460.131 280.686 459.92 280.264 460.026 279.736L466.04 263.382C466.251 262.854 466.884 262.432 467.412 262.432H501.915C502.442 262.432 503.181 262.854 503.392 263.382L509.934 279.736ZM491.047 270.979C491.469 273.933 488.726 276.466 484.927 276.466C481.129 276.466 478.386 273.828 478.597 270.979C478.913 268.341 481.656 266.442 484.716 266.442C487.882 266.442 490.731 268.447 491.047 270.979ZM473.017 271.386C473.171 272.462 472.172 273.383 470.789 273.383C469.407 273.383 468.408 272.423 468.485 271.386C468.6 270.426 469.599 269.735 470.713 269.735C471.865 269.735 472.902 270.465 473.017 271.386ZM501.179 271.386C501.332 272.462 500.334 273.383 498.951 273.383C497.568 273.383 496.57 272.423 496.647 271.386C496.762 270.426 497.76 269.735 498.874 269.735C500.026 269.735 501.063 270.465 501.179 271.386Z" stroke="#2D3840" stroke-miterlimit="10" stroke-linecap="round" stroke-linejoin="round"/>
<path d="M640.688 386.49V399H638.636V386.49H640.688ZM648.386 388.92C649.166 388.92 649.862 389.082 650.474 389.406C651.098 389.73 651.584 390.21 651.932 390.846C652.28 391.482 652.454 392.25 652.454 393.15V399H650.42V393.456C650.42 392.568 650.198 391.89 649.754 391.422C649.31 390.942 648.704 390.702 647.936 390.702C647.168 390.702 646.556 390.942 646.1 391.422C645.656 391.89 645.434 392.568 645.434 393.456V399H643.382V389.082H645.434V390.216C645.77 389.808 646.196 389.49 646.712 389.262C647.24 389.034 647.798 388.92 648.386 388.92ZM658.906 397.164L661.714 389.082H663.892L660.112 399H657.664L653.902 389.082H656.098L658.906 397.164ZM674.533 393.798C674.533 394.17 674.509 394.506 674.461 394.806H666.883C666.943 395.598 667.237 396.234 667.765 396.714C668.293 397.194 668.941 397.434 669.709 397.434C670.813 397.434 671.593 396.972 672.049 396.048H674.263C673.963 396.96 673.417 397.71 672.625 398.298C671.845 398.874 670.873 399.162 669.709 399.162C668.761 399.162 667.909 398.952 667.153 398.532C666.409 398.1 665.821 397.5 665.389 396.732C664.969 395.952 664.759 395.052 664.759 394.032C664.759 393.012 664.963 392.118 665.371 391.35C665.791 390.57 666.373 389.97 667.117 389.55C667.873 389.13 668.737 388.92 669.709 388.92C670.645 388.92 671.479 389.124 672.211 389.532C672.943 389.94 673.513 390.516 673.921 391.26C674.329 391.992 674.533 392.838 674.533 393.798ZM672.391 393.15C672.379 392.394 672.109 391.788 671.581 391.332C671.053 390.876 670.399 390.648 669.619 390.648C668.911 390.648 668.305 390.876 667.801 391.332C667.297 391.776 666.997 392.382 666.901 393.15H672.391ZM680.152 399.162C679.372 399.162 678.67 399.024 678.046 398.748C677.434 398.46 676.948 398.076 676.588 397.596C676.228 397.104 676.036 396.558 676.012 395.958H678.136C678.172 396.378 678.37 396.732 678.73 397.02C679.102 397.296 679.564 397.434 680.116 397.434C680.692 397.434 681.136 397.326 681.448 397.11C681.772 396.882 681.934 396.594 681.934 396.246C681.934 395.874 681.754 395.598 681.394 395.418C681.046 395.238 680.488 395.04 679.72 394.824C678.976 394.62 678.37 394.422 677.902 394.23C677.434 394.038 677.026 393.744 676.678 393.348C676.342 392.952 676.174 392.43 676.174 391.782C676.174 391.254 676.33 390.774 676.642 390.342C676.954 389.898 677.398 389.55 677.974 389.298C678.562 389.046 679.234 388.92 679.99 388.92C681.118 388.92 682.024 389.208 682.708 389.784C683.404 390.348 683.776 391.122 683.824 392.106H681.772C681.736 391.662 681.556 391.308 681.232 391.044C680.908 390.78 680.47 390.648 679.918 390.648C679.378 390.648 678.964 390.75 678.676 390.954C678.388 391.158 678.244 391.428 678.244 391.764C678.244 392.028 678.34 392.25 678.532 392.43C678.724 392.61 678.958 392.754 679.234 392.862C679.51 392.958 679.918 393.084 680.458 393.24C681.178 393.432 681.766 393.63 682.222 393.834C682.69 394.026 683.092 394.314 683.428 394.698C683.764 395.082 683.938 395.592 683.95 396.228C683.95 396.792 683.794 397.296 683.482 397.74C683.17 398.184 682.726 398.532 682.15 398.784C681.586 399.036 680.92 399.162 680.152 399.162ZM688.561 390.756V396.246C688.561 396.618 688.645 396.888 688.813 397.056C688.993 397.212 689.293 397.29 689.713 397.29H690.973V399H689.353C688.429 399 687.721 398.784 687.229 398.352C686.737 397.92 686.491 397.218 686.491 396.246V390.756H685.321V389.082H686.491V386.616H688.561V389.082H690.973V390.756H688.561ZM704.871 388.92C705.651 388.92 706.347 389.082 706.959 389.406C707.583 389.73 708.069 390.21 708.417 390.846C708.777 391.482 708.957 392.25 708.957 393.15V399H706.923V393.456C706.923 392.568 706.701 391.89 706.257 391.422C705.813 390.942 705.207 390.702 704.439 390.702C703.671 390.702 703.059 390.942 702.603 391.422C702.159 391.89 701.937 392.568 701.937 393.456V399H699.903V393.456C699.903 392.568 699.681 391.89 699.237 391.422C698.793 390.942 698.187 390.702 697.419 390.702C696.651 390.702 696.039 390.942 695.583 391.422C695.139 391.89 694.917 392.568 694.917 393.456V399H692.865V389.082H694.917V390.216C695.253 389.808 695.679 389.49 696.195 389.262C696.711 389.034 697.263 388.92 697.851 388.92C698.643 388.92 699.351 389.088 699.975 389.424C700.599 389.76 701.079 390.246 701.415 390.882C701.715 390.282 702.183 389.808 702.819 389.46C703.455 389.1 704.139 388.92 704.871 388.92ZM720.658 393.798C720.658 394.17 720.634 394.506 720.586 394.806H713.008C713.068 395.598 713.362 396.234 713.89 396.714C714.418 397.194 715.066 397.434 715.834 397.434C716.938 397.434 717.718 396.972 718.174 396.048H720.388C720.088 396.96 719.542 397.71 718.75 398.298C717.97 398.874 716.998 399.162 715.834 399.162C714.886 399.162 714.034 398.952 713.278 398.532C712.534 398.1 711.946 397.5 711.514 396.732C711.094 395.952 710.884 395.052 710.884 394.032C710.884 393.012 711.088 392.118 711.496 391.35C711.916 390.57 712.498 389.97 713.242 389.55C713.998 389.13 714.862 388.92 715.834 388.92C716.77 388.92 717.604 389.124 718.336 389.532C719.068 389.94 719.638 390.516 720.046 391.26C720.454 391.992 720.658 392.838 720.658 393.798ZM718.516 393.15C718.504 392.394 718.234 391.788 717.706 391.332C717.178 390.876 716.524 390.648 715.744 390.648C715.036 390.648 714.43 390.876 713.926 391.332C713.422 391.776 713.122 392.382 713.026 393.15H718.516ZM727.681 388.92C728.461 388.92 729.157 389.082 729.769 389.406C730.393 389.73 730.879 390.21 731.227 390.846C731.575 391.482 731.749 392.25 731.749 393.15V399H729.715V393.456C729.715 392.568 729.493 391.89 729.049 391.422C728.605 390.942 727.999 390.702 727.231 390.702C726.463 390.702 725.851 390.942 725.395 391.422C724.951 391.89 724.729 392.568 724.729 393.456V399H722.677V389.082H724.729V390.216C725.065 389.808 725.491 389.49 726.007 389.262C726.535 389.034 727.093 388.92 727.681 388.92ZM736.761 390.756V396.246C736.761 396.618 736.845 396.888 737.013 397.056C737.193 397.212 737.493 397.29 737.913 397.29H739.173V399H737.553C736.629 399 735.921 398.784 735.429 398.352C734.937 397.92 734.691 397.218 734.691 396.246V390.756H733.521V389.082H734.691V386.616H736.761V389.082H739.173V390.756H736.761Z" fill="#323A43"/>
<g filter="url(#filter3_d_1_109)">
<circle cx="688" cy="280" r="75" fill="white"/>
</g>
<path d="M713 267.817C713 270.466 705.373 272.584 695.945 272.584C694.144 272.584 692.449 272.478 690.754 272.373C690.543 272.373 680.373 271.101 680.267 270.995M713 277.034C713 279.577 705.797 281.695 696.792 281.801M713 286.249C713 288.792 705.902 290.804 697.004 291.016M678.89 260.826V271.631M713 260.826V286.143M713 259.343C713 261.991 705.373 264.11 695.945 264.11C686.517 264.11 678.89 261.991 678.89 259.343C678.89 256.695 686.517 254.576 695.945 254.576C705.373 254.576 713 256.695 713 259.343ZM696.581 288.581C696.581 297.903 689.059 305.424 679.737 305.424C670.521 305.424 663 297.903 663 288.581C663 279.259 670.521 271.738 679.843 271.738C689.059 271.843 696.581 279.365 696.581 288.581ZM678.89 299.491V296.843C677.407 296.843 675.818 296.313 674.864 295.678L675.5 293.877C676.453 294.512 677.83 295.042 679.313 295.042C681.22 295.042 682.491 293.983 682.491 292.5C682.491 291.017 681.432 290.169 679.525 289.322C676.771 288.262 675.182 287.097 675.182 284.767C675.182 282.542 676.771 280.953 679.207 280.529V277.881H680.796V280.423C682.385 280.423 683.445 280.847 684.186 281.377L683.551 283.072C683.021 282.754 681.962 282.224 680.267 282.224C678.254 282.224 677.512 283.39 677.512 284.449C677.512 285.826 678.466 286.462 680.796 287.415C683.551 288.58 684.928 289.851 684.928 292.288C684.928 294.407 683.445 296.313 680.796 296.737V299.491H678.89Z" stroke="#2D3840"/>
<path d="M874.774 320.49V333H872.722V327.528H866.836V333H864.784V320.49H866.836V325.854H872.722V320.49H874.774ZM886.565 327.798C886.565 328.17 886.541 328.506 886.493 328.806H878.915C878.975 329.598 879.269 330.234 879.797 330.714C880.325 331.194 880.973 331.434 881.741 331.434C882.845 331.434 883.625 330.972 884.081 330.048H886.295C885.995 330.96 885.449 331.71 884.657 332.298C883.877 332.874 882.905 333.162 881.741 333.162C880.793 333.162 879.941 332.952 879.185 332.532C878.441 332.1 877.853 331.5 877.421 330.732C877.001 329.952 876.791 329.052 876.791 328.032C876.791 327.012 876.995 326.118 877.403 325.35C877.823 324.57 878.405 323.97 879.149 323.55C879.905 323.13 880.769 322.92 881.741 322.92C882.677 322.92 883.511 323.124 884.243 323.532C884.975 323.94 885.545 324.516 885.953 325.26C886.361 325.992 886.565 326.838 886.565 327.798ZM884.423 327.15C884.411 326.394 884.141 325.788 883.613 325.332C883.085 324.876 882.431 324.648 881.651 324.648C880.943 324.648 880.337 324.876 879.833 325.332C879.329 325.776 879.029 326.382 878.933 327.15H884.423ZM887.9 327.996C887.9 327 888.104 326.118 888.512 325.35C888.932 324.582 889.496 323.988 890.204 323.568C890.924 323.136 891.716 322.92 892.58 322.92C893.36 322.92 894.038 323.076 894.614 323.388C895.202 323.688 895.67 324.066 896.018 324.522V323.082H898.088V333H896.018V331.524C895.67 331.992 895.196 332.382 894.596 332.694C893.996 333.006 893.312 333.162 892.544 333.162C891.692 333.162 890.912 332.946 890.204 332.514C889.496 332.07 888.932 331.458 888.512 330.678C888.104 329.886 887.9 328.992 887.9 327.996ZM896.018 328.032C896.018 327.348 895.874 326.754 895.586 326.25C895.31 325.746 894.944 325.362 894.488 325.098C894.032 324.834 893.54 324.702 893.012 324.702C892.484 324.702 891.992 324.834 891.536 325.098C891.08 325.35 890.708 325.728 890.42 326.232C890.144 326.724 890.006 327.312 890.006 327.996C890.006 328.68 890.144 329.28 890.42 329.796C890.708 330.312 891.08 330.708 891.536 330.984C892.004 331.248 892.496 331.38 893.012 331.38C893.54 331.38 894.032 331.248 894.488 330.984C894.944 330.72 895.31 330.336 895.586 329.832C895.874 329.316 896.018 328.716 896.018 328.032ZM902.836 319.68V333H900.784V319.68H902.836ZM907.924 324.756V330.246C907.924 330.618 908.008 330.888 908.176 331.056C908.356 331.212 908.656 331.29 909.076 331.29H910.336V333H908.716C907.792 333 907.084 332.784 906.592 332.352C906.1 331.92 905.854 331.218 905.854 330.246V324.756H904.684V323.082H905.854V320.616H907.924V323.082H910.336V324.756H907.924ZM917.357 322.92C918.113 322.92 918.785 323.082 919.373 323.406C919.973 323.73 920.441 324.21 920.777 324.846C921.125 325.482 921.299 326.25 921.299 327.15V333H919.265V327.456C919.265 326.568 919.043 325.89 918.599 325.422C918.155 324.942 917.549 324.702 916.781 324.702C916.013 324.702 915.401 324.942 914.945 325.422C914.501 325.89 914.279 326.568 914.279 327.456V333H912.227V319.68H914.279V324.234C914.627 323.814 915.065 323.49 915.593 323.262C916.133 323.034 916.721 322.92 917.357 322.92Z" fill="#323A43"/>
<g filter="url(#filter4_d_1_109)">
<circle cx="893" cy="214" r="75" fill="white"/>
</g>
<path fill-rule="evenodd" clip-rule="evenodd" d="M890.329 240.25H895.658H895.659C899.128 240.25 901.942 237.44 901.948 233.973V222.948H912.96C916.432 222.943 919.245 220.132 919.25 216.658V211.329C919.243 207.859 916.429 205.052 912.96 205.052H901.948V194.027C901.941 190.557 899.128 187.75 895.659 187.75H890.329C886.865 187.752 884.056 190.562 884.051 194.027L884.053 205.052H873.028C869.564 205.054 866.755 207.864 866.75 211.329V216.658C866.752 220.127 869.559 222.941 873.028 222.948H884.051V233.973C884.055 237.438 886.864 240.245 890.329 240.25ZM869.18 211.331C869.182 209.207 870.903 207.484 873.029 207.481H885.268C885.589 207.481 885.898 207.354 886.126 207.126C886.354 206.899 886.481 206.589 886.481 206.268V194.029C886.483 191.905 888.204 190.182 890.331 190.18H895.66C897.788 190.18 899.516 191.901 899.521 194.029V206.268C899.521 206.589 899.648 206.899 899.876 207.126C900.103 207.354 900.413 207.481 900.736 207.481H912.961C915.09 207.481 916.818 209.202 916.822 211.331V216.66C916.82 218.794 915.092 220.519 912.961 220.521H900.736C900.413 220.521 900.103 220.651 899.876 220.879C899.648 221.106 899.521 221.414 899.521 221.737V233.976C899.516 236.104 897.788 237.825 895.66 237.823H890.331C888.204 237.821 886.483 236.1 886.481 233.976V221.737C886.481 221.414 886.353 221.106 886.126 220.879C885.898 220.651 885.589 220.521 885.268 220.521H873.029C870.901 220.517 869.18 218.789 869.18 216.66V211.331Z" fill="#323A43"/>
<path d="M890.329 240.25L890.329 240.5H890.329V240.25ZM901.948 233.973L902.198 233.974V233.973H901.948ZM901.948 222.948V222.698H901.698V222.948H901.948ZM912.96 222.948V223.198L912.96 223.198L912.96 222.948ZM919.25 216.658L919.5 216.658V216.658H919.25ZM919.25 211.329H919.5L919.5 211.328L919.25 211.329ZM901.948 205.052H901.698V205.302H901.948V205.052ZM901.948 194.027H902.198L902.198 194.026L901.948 194.027ZM890.329 187.75L890.329 187.5L890.329 187.5L890.329 187.75ZM884.051 194.027L883.801 194.026L883.801 194.027L884.051 194.027ZM884.053 205.052V205.302H884.303L884.303 205.052L884.053 205.052ZM873.028 205.052V204.802L873.028 204.802L873.028 205.052ZM866.75 211.329L866.5 211.328V211.329H866.75ZM866.75 216.658H866.5L866.5 216.658L866.75 216.658ZM873.028 222.948L873.028 223.198H873.028V222.948ZM884.051 222.948H884.301V222.698H884.051V222.948ZM884.051 233.973H883.801L883.801 233.974L884.051 233.973ZM873.029 207.481V207.231L873.029 207.231L873.029 207.481ZM869.18 211.331L868.93 211.331V211.331H869.18ZM886.126 207.126L886.303 207.303L886.303 207.303L886.126 207.126ZM886.481 194.029L886.231 194.029V194.029H886.481ZM890.331 190.18V189.93L890.33 189.93L890.331 190.18ZM899.521 194.029L899.771 194.029L899.771 194.029L899.521 194.029ZM899.876 207.126L899.699 207.303L899.699 207.303L899.876 207.126ZM916.822 211.331H917.072L917.072 211.33L916.822 211.331ZM916.822 216.66L917.072 216.661V216.66H916.822ZM912.961 220.521V220.771L912.962 220.771L912.961 220.521ZM899.876 220.879L899.699 220.702L899.699 220.702L899.876 220.879ZM899.521 233.976L899.771 233.976V233.976H899.521ZM895.66 237.823L895.66 237.573H895.66V237.823ZM890.331 237.823L890.33 238.073H890.331V237.823ZM886.481 233.976L886.231 233.976L886.231 233.976L886.481 233.976ZM886.126 220.879L886.303 220.702L886.303 220.702L886.126 220.879ZM873.029 220.521L873.029 220.771H873.029V220.521ZM895.658 240H890.329V240.5H895.658V240ZM895.659 240H895.658V240.5H895.659V240ZM901.698 233.973C901.692 237.302 898.99 240 895.659 240V240.5C899.266 240.5 902.191 237.579 902.198 233.974L901.698 233.973ZM901.698 222.948V233.973H902.198V222.948H901.698ZM912.96 222.698H901.948V223.198H912.96V222.698ZM919 216.658C918.996 219.994 916.294 222.694 912.96 222.698L912.96 223.198C916.57 223.193 919.495 220.27 919.5 216.658L919 216.658ZM919 211.329V216.658H919.5V211.329H919ZM912.96 205.302C916.292 205.302 918.993 207.997 919 211.329L919.5 211.328C919.493 207.72 916.567 204.802 912.96 204.802V205.302ZM901.948 205.302H912.96V204.802H901.948V205.302ZM901.698 194.027V205.052H902.198V194.027H901.698ZM895.659 188C898.99 188 901.692 190.695 901.698 194.027L902.198 194.026C902.191 190.419 899.266 187.5 895.659 187.5V188ZM890.329 188H895.659V187.5H890.329V188ZM884.301 194.027C884.305 190.7 887.003 188.002 890.329 188L890.329 187.5C886.727 187.502 883.806 190.424 883.801 194.026L884.301 194.027ZM884.303 205.052L884.301 194.027L883.801 194.027L883.803 205.052L884.303 205.052ZM873.028 205.302H884.053V204.802H873.028V205.302ZM867 211.329C867.004 208.002 869.702 205.304 873.028 205.302L873.028 204.802C869.426 204.804 866.505 207.726 866.5 211.328L867 211.329ZM867 216.658V211.329H866.5V216.658H867ZM873.029 222.698C869.697 222.691 867.002 219.99 867 216.658L866.5 216.658C866.502 220.265 869.42 223.191 873.028 223.198L873.029 222.698ZM884.051 222.698H873.028V223.198H884.051V222.698ZM884.301 233.973V222.948H883.801V233.973H884.301ZM890.33 240C887.002 239.996 884.305 237.3 884.301 233.973L883.801 233.974C883.805 237.577 886.726 240.495 890.329 240.5L890.33 240ZM873.029 207.231C870.765 207.234 868.932 209.069 868.93 211.331L869.43 211.331C869.432 209.345 871.041 207.734 873.03 207.731L873.029 207.231ZM885.268 207.231H873.029V207.731H885.268V207.231ZM885.949 206.949C885.769 207.13 885.523 207.231 885.268 207.231V207.731C885.655 207.731 886.028 207.578 886.303 207.303L885.949 206.949ZM886.231 206.268C886.231 206.523 886.13 206.769 885.949 206.949L886.303 207.303C886.577 207.028 886.731 206.655 886.731 206.268H886.231ZM886.231 194.029V206.268H886.731V194.029H886.231ZM890.33 189.93C888.066 189.932 886.233 191.767 886.231 194.029L886.731 194.03C886.733 192.043 888.343 190.432 890.331 190.43L890.33 189.93ZM895.66 189.93H890.331V190.43H895.66V189.93ZM899.771 194.029C899.766 191.762 897.926 189.93 895.66 189.93V190.43C897.651 190.43 899.266 192.039 899.271 194.03L899.771 194.029ZM899.771 206.268V194.029H899.271V206.268H899.771ZM900.053 206.949C899.872 206.769 899.771 206.523 899.771 206.268H899.271C899.271 206.655 899.424 207.028 899.699 207.303L900.053 206.949ZM900.736 207.231C900.479 207.231 900.233 207.13 900.053 206.949L899.699 207.303C899.974 207.578 900.347 207.731 900.736 207.731V207.231ZM912.961 207.231H900.736V207.731H912.961V207.231ZM917.072 211.33C917.067 209.064 915.227 207.231 912.961 207.231V207.731C914.952 207.731 916.568 209.341 916.572 211.332L917.072 211.33ZM917.072 216.66V211.331H916.572V216.66H917.072ZM912.962 220.771C915.23 220.769 917.07 218.932 917.072 216.661L916.572 216.66C916.57 218.655 914.954 220.269 912.961 220.271L912.962 220.771ZM900.736 220.771H912.961V220.271H900.736V220.771ZM900.053 221.056C900.234 220.874 900.48 220.771 900.736 220.771V220.271C900.346 220.271 899.973 220.428 899.699 220.702L900.053 221.056ZM899.771 221.737C899.771 221.48 899.872 221.236 900.053 221.056L899.699 220.702C899.424 220.977 899.271 221.348 899.271 221.737H899.771ZM899.771 233.976V221.737H899.271V233.976H899.771ZM895.659 238.073C897.926 238.075 899.766 236.243 899.771 233.976L899.271 233.975C899.266 235.966 897.651 237.575 895.66 237.573L895.659 238.073ZM890.331 238.073H895.66V237.573H890.331V238.073ZM886.231 233.976C886.233 236.238 888.066 238.071 890.33 238.073L890.331 237.573C888.342 237.571 886.733 235.961 886.731 233.975L886.231 233.976ZM886.231 221.737V233.976H886.731V221.737H886.231ZM885.949 221.056C886.13 221.236 886.231 221.48 886.231 221.737H886.731C886.731 221.348 886.577 220.977 886.303 220.702L885.949 221.056ZM885.268 220.771C885.521 220.771 885.768 220.874 885.949 221.056L886.303 220.702C886.029 220.428 885.656 220.271 885.268 220.271V220.771ZM873.029 220.771H885.268V220.271H873.029V220.771ZM868.93 216.66C868.93 218.926 870.762 220.767 873.029 220.771L873.03 220.271C871.039 220.267 869.43 218.651 869.43 216.66H868.93ZM868.93 211.331V216.66H869.43V211.331H868.93Z" fill="#323A43"/>
<path d="M1076.64 184.49V186.164H1071.33V189.854H1075.47V191.528H1071.33V197H1069.28V184.49H1076.64ZM1077.86 191.996C1077.86 191 1078.07 190.118 1078.47 189.35C1078.89 188.582 1079.46 187.988 1080.17 187.568C1080.89 187.136 1081.68 186.92 1082.54 186.92C1083.32 186.92 1084 187.076 1084.58 187.388C1085.16 187.688 1085.63 188.066 1085.98 188.522V187.082H1088.05V197H1085.98V195.524C1085.63 195.992 1085.16 196.382 1084.56 196.694C1083.96 197.006 1083.27 197.162 1082.51 197.162C1081.65 197.162 1080.87 196.946 1080.17 196.514C1079.46 196.07 1078.89 195.458 1078.47 194.678C1078.07 193.886 1077.86 192.992 1077.86 191.996ZM1085.98 192.032C1085.98 191.348 1085.84 190.754 1085.55 190.25C1085.27 189.746 1084.91 189.362 1084.45 189.098C1083.99 188.834 1083.5 188.702 1082.97 188.702C1082.45 188.702 1081.95 188.834 1081.5 189.098C1081.04 189.35 1080.67 189.728 1080.38 190.232C1080.11 190.724 1079.97 191.312 1079.97 191.996C1079.97 192.68 1080.11 193.28 1080.38 193.796C1080.67 194.312 1081.04 194.708 1081.5 194.984C1081.97 195.248 1082.46 195.38 1082.97 195.38C1083.5 195.38 1083.99 195.248 1084.45 194.984C1084.91 194.72 1085.27 194.336 1085.55 193.832C1085.84 193.316 1085.98 192.716 1085.98 192.032ZM1102.75 186.92C1103.53 186.92 1104.23 187.082 1104.84 187.406C1105.46 187.73 1105.95 188.21 1106.3 188.846C1106.66 189.482 1106.84 190.25 1106.84 191.15V197H1104.8V191.456C1104.8 190.568 1104.58 189.89 1104.14 189.422C1103.69 188.942 1103.09 188.702 1102.32 188.702C1101.55 188.702 1100.94 188.942 1100.48 189.422C1100.04 189.89 1099.82 190.568 1099.82 191.456V197H1097.78V191.456C1097.78 190.568 1097.56 189.89 1097.12 189.422C1096.67 188.942 1096.07 188.702 1095.3 188.702C1094.53 188.702 1093.92 188.942 1093.46 189.422C1093.02 189.89 1092.8 190.568 1092.8 191.456V197H1090.75V187.082H1092.8V188.216C1093.13 187.808 1093.56 187.49 1094.08 187.262C1094.59 187.034 1095.14 186.92 1095.73 186.92C1096.52 186.92 1097.23 187.088 1097.86 187.424C1098.48 187.76 1098.96 188.246 1099.3 188.882C1099.6 188.282 1100.06 187.808 1100.7 187.46C1101.34 187.1 1102.02 186.92 1102.75 186.92ZM1110.49 185.768C1110.12 185.768 1109.81 185.642 1109.56 185.39C1109.3 185.138 1109.18 184.826 1109.18 184.454C1109.18 184.082 1109.3 183.77 1109.56 183.518C1109.81 183.266 1110.12 183.14 1110.49 183.14C1110.85 183.14 1111.16 183.266 1111.41 183.518C1111.66 183.77 1111.79 184.082 1111.79 184.454C1111.79 184.826 1111.66 185.138 1111.41 185.39C1111.16 185.642 1110.85 185.768 1110.49 185.768ZM1111.5 187.082V197H1109.45V187.082H1111.5ZM1116.25 183.68V197H1114.19V183.68H1116.25ZM1127.87 187.082L1121.78 201.662H1119.66L1121.68 196.838L1117.77 187.082H1120.06L1122.85 194.642L1125.74 187.082H1127.87Z" fill="#323A43"/>
<g filter="url(#filter5_d_1_109)">
<circle cx="1098" cy="78" r="75" fill="white"/>
</g>
<path d="M1097.89 88.3284C1096.92 88.3415 1096.15 89.1378 1096.16 90.1002V100.719C1096.16 101.187 1096.34 101.637 1096.67 101.974C1097 102.307 1097.45 102.495 1097.91 102.495C1098.38 102.495 1098.83 102.307 1099.16 101.974C1099.49 101.637 1099.67 101.187 1099.66 100.719V90.1002C1099.67 89.6277 1099.48 89.1728 1099.15 88.8403C1098.82 88.5034 1098.36 88.3197 1097.89 88.3284Z" fill="#323A43"/>
<path d="M1115.4 71C1115.13 71 1114.86 71.0612 1114.61 71.1797C1112.45 72.1882 1108.16 75.0383 1104.07 79.0604C1099.99 83.0825 1096.16 88.2232 1096.16 93.8422C1096.16 94.2791 1096.34 94.6997 1096.67 95.0141C1097 95.3244 1097.45 95.5 1097.91 95.5C1098.38 95.5 1098.83 95.3244 1099.16 95.0141C1099.49 94.6997 1099.67 94.2791 1099.66 93.8422C1099.66 89.6772 1102.83 85.0346 1106.62 81.3068C1110.4 77.5828 1114.84 74.7245 1116.17 74.1039C1116.91 73.7732 1117.3 73.0055 1117.12 72.2624C1116.93 71.5192 1116.22 70.9966 1115.4 71.0007L1115.4 71Z" fill="#323A43"/>
<path fill-rule="evenodd" clip-rule="evenodd" d="M1118.2 61.0785C1122.42 60.5349 1126.13 60.5004 1126.13 60.5004L1126.13 60.5001C1126.53 60.4962 1126.93 60.657 1127.22 60.948C1127.51 61.2389 1127.68 61.6332 1127.67 62.0467C1127.67 62.0467 1127.64 65.7485 1127.09 69.9749C1126.55 74.2016 1125.76 78.9487 1123.12 81.5863C1118.57 86.1381 1111.14 86.1376 1106.59 81.5863C1102.03 77.0351 1102.03 69.604 1106.59 65.0522C1109.22 62.4184 1113.97 61.6221 1118.2 61.0785ZM1124.49 64.0801C1124.49 63.9413 1124.49 63.8109 1124.49 63.6875H1124.49C1124.49 63.6875 1124.49 63.6875 1124.49 63.6875C1124.37 63.6909 1124.24 63.694 1124.1 63.6972C1123 63.7224 1121.37 63.7595 1118.6 64.1163C1114.58 64.6331 1110.09 65.8926 1108.76 67.221C1105.37 70.605 1105.37 76.0412 1108.76 79.4253C1112.14 82.8056 1117.57 82.8094 1120.96 79.4253C1122.29 78.0931 1123.55 73.6065 1124.06 69.5868C1124.42 66.8058 1124.46 65.1812 1124.49 64.0801Z" fill="#323A43"/>
<path fill-rule="evenodd" clip-rule="evenodd" d="M1079.31 61.0785C1075.08 60.5349 1071.38 60.5004 1071.38 60.5004L1071.38 60.5001C1070.97 60.4962 1070.57 60.657 1070.28 60.948C1069.99 61.2389 1069.83 61.6332 1069.84 62.0467C1069.84 62.0467 1069.87 65.7485 1070.41 69.9749C1070.96 74.2016 1071.75 78.9487 1074.39 81.5863C1078.94 86.1381 1086.37 86.1376 1090.92 81.5863C1095.47 77.0351 1095.47 69.604 1090.92 65.0522C1088.28 62.4184 1083.54 61.6221 1079.31 61.0785ZM1073.03 64.0801C1073.03 63.9413 1073.02 63.8109 1073.02 63.6875H1073.02C1073.02 63.6875 1073.02 63.6875 1073.02 63.6875C1073.15 63.6909 1073.28 63.694 1073.42 63.6972C1074.52 63.7224 1076.14 63.7595 1078.92 64.1163C1082.94 64.6331 1087.43 65.8926 1088.76 67.221C1092.14 70.605 1092.14 76.0412 1088.76 79.4253C1085.37 82.8056 1079.94 82.8094 1076.56 79.4253C1075.23 78.0931 1073.97 73.6065 1073.45 69.5868C1073.09 66.8058 1073.06 65.1812 1073.03 64.0801Z" fill="#323A43"/>
<path d="M1080.37 71.0002C1079.56 71.0165 1078.87 71.5473 1078.7 72.2864C1078.53 73.0255 1078.92 73.7768 1079.65 74.1035C1080.98 74.7242 1085.42 77.5824 1089.2 81.3063C1092.99 85.0302 1096.15 89.6728 1096.15 93.8416H1096.16C1096.15 94.2785 1096.33 94.6991 1096.66 95.0135C1096.99 95.3238 1097.44 95.4994 1097.91 95.4994C1098.37 95.4994 1098.82 95.3238 1099.15 95.0135C1099.48 94.6991 1099.66 94.2785 1099.66 93.8416C1099.66 88.2231 1095.83 83.0823 1091.75 79.0599C1087.66 75.0379 1083.37 72.1919 1081.21 71.1793V71.1833C1080.95 71.0568 1080.66 70.9961 1080.37 71.0002Z" fill="#323A43"/>
<defs>
<filter id="filter0_d_1_109" x="0" y="0" width="158" height="158" filterUnits="userSpaceOnUse" color-interpolation-filters="sRGB">
<feFlood flood-opacity="0" result="BackgroundImageFix"/>
<feColorMatrix in="SourceAlpha" type="matrix" values="0 0 0 0 0 0 0 0 0 0 0 0 0 0 0 0 0 0 127 0" result="hardAlpha"/>
<feOffset dy="2"/>
<feGaussianBlur stdDeviation="2"/>
<feComposite in2="hardAlpha" operator="out"/>
<feColorMatrix type="matrix" values="0 0 0 0 0.617008 0 0 0 0 0.609617 0 0 0 0 0.609617 0 0 0 0.25 0"/>
<feBlend mode="normal" in2="BackgroundImageFix" result="effect1_dropShadow_1_109"/>
<feBlend mode="normal" in="SourceGraphic" in2="effect1_dropShadow_1_109" result="shape"/>
</filter>
<filter id="filter1_d_1_109" x="203" y="137" width="158" height="158" filterUnits="userSpaceOnUse" color-interpolation-filters="sRGB">
<feFlood flood-opacity="0" result="BackgroundImageFix"/>
<feColorMatrix in="SourceAlpha" type="matrix" values="0 0 0 0 0 0 0 0 0 0 0 0 0 0 0 0 0 0 127 0" result="hardAlpha"/>
<feOffset dy="2"/>
<feGaussianBlur stdDeviation="2"/>
<feComposite in2="hardAlpha" operator="out"/>
<feColorMatrix type="matrix" values="0 0 0 0 0.617008 0 0 0 0 0.609617 0 0 0 0 0.609617 0 0 0 0.25 0"/>
<feBlend mode="normal" in2="BackgroundImageFix" result="effect1_dropShadow_1_109"/>
<feBlend mode="normal" in="SourceGraphic" in2="effect1_dropShadow_1_109" result="shape"/>
</filter>
<filter id="filter2_d_1_109" x="406" y="203" width="158" height="158" filterUnits="userSpaceOnUse" color-interpolation-filters="sRGB">
<feFlood flood-opacity="0" result="BackgroundImageFix"/>
<feColorMatrix in="SourceAlpha" type="matrix" values="0 0 0 0 0 0 0 0 0 0 0 0 0 0 0 0 0 0 127 0" result="hardAlpha"/>
<feOffset dy="2"/>
<feGaussianBlur stdDeviation="2"/>
<feComposite in2="hardAlpha" operator="out"/>
<feColorMatrix type="matrix" values="0 0 0 0 0.617008 0 0 0 0 0.609617 0 0 0 0 0.609617 0 0 0 0.25 0"/>
<feBlend mode="normal" in2="BackgroundImageFix" result="effect1_dropShadow_1_109"/>
<feBlend mode="normal" in="SourceGraphic" in2="effect1_dropShadow_1_109" result="shape"/>
</filter>
<filter id="filter3_d_1_109" x="609" y="203" width="158" height="158" filterUnits="userSpaceOnUse" color-interpolation-filters="sRGB">
<feFlood flood-opacity="0" result="BackgroundImageFix"/>
<feColorMatrix in="SourceAlpha" type="matrix" values="0 0 0 0 0 0 0 0 0 0 0 0 0 0 0 0 0 0 127 0" result="hardAlpha"/>
<feOffset dy="2"/>
<feGaussianBlur stdDeviation="2"/>
<feComposite in2="hardAlpha" operator="out"/>
<feColorMatrix type="matrix" values="0 0 0 0 0.617008 0 0 0 0 0.609617 0 0 0 0 0.609617 0 0 0 0.25 0"/>
<feBlend mode="normal" in2="BackgroundImageFix" result="effect1_dropShadow_1_109"/>
<feBlend mode="normal" in="SourceGraphic" in2="effect1_dropShadow_1_109" result="shape"/>
</filter>
<filter id="filter4_d_1_109" x="814" y="137" width="158" height="158" filterUnits="userSpaceOnUse" color-interpolation-filters="sRGB">
<feFlood flood-opacity="0" result="BackgroundImageFix"/>
<feColorMatrix in="SourceAlpha" type="matrix" values="0 0 0 0 0 0 0 0 0 0 0 0 0 0 0 0 0 0 127 0" result="hardAlpha"/>
<feOffset dy="2"/>
<feGaussianBlur stdDeviation="2"/>
<feComposite in2="hardAlpha" operator="out"/>
<feColorMatrix type="matrix" values="0 0 0 0 0.617008 0 0 0 0 0.609617 0 0 0 0 0.609617 0 0 0 0.25 0"/>
<feBlend mode="normal" in2="BackgroundImageFix" result="effect1_dropShadow_1_109"/>
<feBlend mode="normal" in="SourceGraphic" in2="effect1_dropShadow_1_109" result="shape"/>
</filter>
<filter id="filter5_d_1_109" x="1019" y="1" width="158" height="158" filterUnits="userSpaceOnUse" color-interpolation-filters="sRGB">
<feFlood flood-opacity="0" result="BackgroundImageFix"/>
<feColorMatrix in="SourceAlpha" type="matrix" values="0 0 0 0 0 0 0 0 0 0 0 0 0 0 0 0 0 0 127 0" result="hardAlpha"/>
<feOffset dy="2"/>
<feGaussianBlur stdDeviation="2"/>
<feComposite in2="hardAlpha" operator="out"/>
<feColorMatrix type="matrix" values="0 0 0 0 0.617008 0 0 0 0 0.609617 0 0 0 0 0.609617 0 0 0 0.25 0"/>
<feBlend mode="normal" in2="BackgroundImageFix" result="effect1_dropShadow_1_109"/>
<feBlend mode="normal" in="SourceGraphic" in2="effect1_dropShadow_1_109" result="shape"/>
</filter>
</defs>
</svg>
