<svg width="60" height="60" viewBox="0 0 60 60" fill="none" xmlns="http://www.w3.org/2000/svg">
<circle cx="30" cy="30" r="30" fill="#ED1C24"/>
<path fill-rule="evenodd" clip-rule="evenodd" d="M34.7065 23.9599C35.097 24.3504 35.097 24.9836 34.7065 25.3741L30.0398 30.0408C29.6493 30.4313 29.0161 30.4313 28.6256 30.0408L25.9589 27.3741C25.5684 26.9836 25.5684 26.3504 25.9589 25.9599C26.3495 25.5694 26.9826 25.5694 27.3732 25.9599L29.3327 27.9194L33.2923 23.9599C33.6828 23.5694 34.316 23.5694 34.7065 23.9599Z" fill="white"/>
<path fill-rule="evenodd" clip-rule="evenodd" d="M18.6985 25.8095C19.171 20.078 23.9605 15.667 29.7114 15.667H30.2873C36.0383 15.667 40.8278 20.078 41.3002 25.8095C41.554 28.8883 40.603 31.9455 38.6474 34.3371L32.2567 42.1528C31.09 43.5796 28.9088 43.5796 27.7421 42.1528L21.3513 34.3371C19.3958 31.9455 18.4447 28.8883 18.6985 25.8095ZM29.7114 17.667C25.0014 17.667 21.0787 21.2796 20.6918 25.9738C20.4806 28.5362 21.2721 31.0806 22.8996 33.0711L29.2904 40.8868C29.6568 41.3349 30.3419 41.3349 30.7084 40.8868L37.0991 33.0711C38.7267 31.0806 39.5182 28.5362 39.307 25.9738C38.9201 21.2796 34.9974 17.667 30.2873 17.667H29.7114Z" fill="white"/>
</svg>
