<svg width="251" height="222" viewBox="0 0 251 222" fill="none" xmlns="http://www.w3.org/2000/svg">
<g clip-path="url(#clip0_2032_5923)">
<path fill-rule="evenodd" clip-rule="evenodd" d="M9.39752 64.7408C15.1053 53.2814 23.962 43.683 34.7871 37.0228C38.8218 34.5742 43.0534 32.7133 47.4818 31.3421C63.0305 26.4449 80.2521 27.4244 95.0135 33.9866C101.607 36.729 107.709 40.8426 112.924 45.6418C119.616 51.8123 125.127 59.6477 127.685 68.4626C128.572 71.205 127.291 71.1071 125.421 69.3442C124.438 68.4626 123.356 67.0914 122.371 65.5243C121.092 63.9573 119.911 62.0963 118.632 60.0395C114.104 52.7917 107.806 46.6212 100.524 42.0179C93.1437 37.4146 84.7789 34.4762 76.0205 33.1051C74.7412 32.8112 73.3635 32.8112 72.0842 32.7133C70.7064 32.6154 69.4271 32.4195 68.0494 32.5174C65.3924 32.6154 62.6369 32.6154 59.9798 33.1051C54.5673 33.6928 49.3517 35.4558 44.2344 37.3166C41.4789 38.492 38.8218 39.7653 36.3616 41.3323C35.0823 42.1159 33.9014 42.9974 32.7205 43.8788L30.7523 45.0542L29.0793 46.5234C24.5525 50.4411 20.5177 54.9464 17.2702 59.9416C15.2036 62.9779 13.5306 66.3079 12.0546 69.638C10.6768 73.0659 9.49585 76.5919 8.61021 80.1178C6.05161 90.9896 6.44515 102.645 9.98795 113.223C12.8418 121.45 17.3686 128.795 23.2731 134.77C23.8636 135.456 24.5525 136.043 25.2413 136.729C25.9302 137.316 26.6191 138.003 27.3079 138.59C32.622 143.095 34.4919 144.368 35.0823 146.23C35.1807 146.621 35.4759 147.111 35.4759 147.503C35.5744 148.09 34.8855 148.09 33.5078 147.699C32.8189 147.503 32.0316 147.111 31.1459 146.621C30.2602 146.132 29.1778 145.446 28.0952 144.662C21.5019 140.059 15.5972 133.791 11.2672 126.445C9.10219 122.821 7.33091 118.903 5.85473 114.79C4.47699 110.676 3.4929 106.464 3.00092 102.155C2.2136 95.7889 2.31205 89.3246 3.39446 82.9583C4.47698 76.5919 6.44515 70.4215 9.29908 64.6429L9.39752 64.7408Z" fill="#0A4020"/>
<path fill-rule="evenodd" clip-rule="evenodd" d="M67.4443 160.335C64.1967 164.155 60.2603 166.995 56.1271 169.346C54.651 170.129 53.1749 171.109 51.6004 171.696C50.4194 172.284 49.1401 172.675 47.8608 173.165L45.9911 173.851L45.007 174.145L43.826 174.536C41.8578 175.124 39.8897 175.711 38.0198 176.005C36.3469 176.3 33.8867 177.083 33.8867 176.398C34.6739 175.222 35.5597 173.851 36.2485 172.773L37.2326 171.109L37.8231 169.639C38.0198 169.149 38.2167 168.66 38.315 168.268L38.5119 167.386C38.8071 166.211 39.0039 165.035 39.0039 163.762C39.2992 160.628 38.9056 157.494 39.0039 154.262C39.0039 153.283 40.1849 153.185 41.3657 153.968C42.5467 154.752 43.826 156.319 43.9244 158.376C44.0228 161.119 43.826 163.861 43.334 166.603C43.1371 167.288 43.0387 167.975 42.8419 168.66L42.5467 169.542C42.5467 169.542 42.5467 169.542 42.4483 169.542C42.3498 169.639 42.2515 169.737 42.0546 169.933L41.8578 170.227C41.8578 170.324 41.8578 170.324 41.8578 170.324C41.9563 170.422 41.9563 170.422 42.1531 170.422C42.3498 170.422 42.6452 170.422 42.9404 170.324L43.2356 170.227L43.6292 170.129C43.826 170.031 44.1212 169.933 44.3181 169.835L45.6958 169.346C47.5656 168.562 49.4353 167.778 51.2067 166.897C55.143 164.937 58.8826 162.588 62.0317 159.55C62.5237 159.159 62.9174 158.572 63.4095 158.081C63.8031 157.592 64.2951 157.103 64.6888 156.612L66.1648 154.458L66.5585 153.772L66.6569 153.674H66.8537H67.2474L68.7236 153.772L70.5933 153.87C71.0854 153.87 71.6758 153.968 72.1679 153.968C73.2503 153.968 74.2344 153.968 75.3169 153.968C77.3835 153.87 79.4502 153.772 81.5168 153.381C84.6658 152.891 87.7165 151.911 90.6687 150.834C91.3576 150.54 91.9482 150.345 92.637 150.051C95.0972 149.169 95.8845 149.071 96.8686 149.952C97.0653 150.149 97.3607 150.345 97.5574 150.54C98.1479 151.225 97.459 152.401 95.6877 153.381C90.3735 156.221 83.9769 157.788 77.5803 158.278C75.2185 158.474 72.7583 158.474 70.3965 158.376H69.6092H69.4124C69.314 158.376 69.1172 158.376 69.1172 158.376L69.0188 158.474L68.7236 158.865C68.3299 159.453 67.9362 159.943 67.4443 160.335Z" fill="#0A4020"/>
<path fill-rule="evenodd" clip-rule="evenodd" d="M134.768 78.7469C130.832 80.4119 127.092 82.6647 123.648 85.1132C120.203 87.7578 117.054 90.5981 114.299 93.9282C111.643 97.2582 109.182 100.785 107.312 104.702C105.54 108.522 104.064 112.636 103.179 116.847C101.9 123.018 101.801 129.384 102.588 135.555C104.163 146.426 109.28 157.004 117.35 164.742C125.223 172.675 135.949 177.67 147.069 179.041C151.99 179.629 157.107 179.531 162.028 178.845C163.307 178.649 164.487 178.454 165.767 178.16C166.948 177.865 168.227 177.67 169.408 177.278L171.179 176.789L172.558 176.396L173.246 176.201L173.64 176.103C173.739 176.103 173.837 176.201 173.935 176.299L175.903 177.964C176.297 178.356 176.888 178.649 177.379 178.943C180.922 181.196 185.154 182.078 189.484 182.47C191.649 182.567 193.814 182.567 195.979 182.372L196.963 182.274L197.652 182.176L198.34 182.078L198.636 181.979C198.734 181.979 198.734 181.979 198.833 181.979L198.734 181.881C198.439 181.588 198.242 181.294 197.947 181L197.553 180.51L197.16 179.923C196.963 179.727 196.864 179.434 196.667 179.237C195.487 177.376 194.601 175.32 194.01 173.165C193.518 171.304 193.715 170.324 194.01 170.129C194.404 169.933 194.897 170.52 195.683 171.598C196.471 172.675 197.455 174.144 198.833 175.809C199.128 176.201 199.522 176.691 199.915 177.083C200.112 177.278 200.309 177.474 200.506 177.768L200.801 178.062C200.899 178.258 201.195 178.552 201.392 178.747C202.965 180.608 205.525 182.861 207.787 185.212C207.296 185.408 206.607 185.506 205.918 185.701C205.229 185.897 204.541 185.995 203.852 186.192C203.162 186.387 202.376 186.485 201.588 186.681C200.801 186.779 199.915 186.975 199.128 187.073L197.947 187.268L196.766 187.366C196.373 187.366 195.88 187.464 195.487 187.464C194.601 187.464 193.715 187.562 192.83 187.562C191.058 187.562 189.287 187.464 187.417 187.268C183.874 186.877 180.234 185.995 176.789 184.232C175.903 183.841 175.116 183.252 174.328 182.763C173.935 182.47 173.542 182.274 173.148 181.979L172.558 181.49C172.558 181.49 172.558 181.49 172.458 181.392L170.097 182.078C168.424 182.47 166.653 182.861 164.98 183.155C163.208 183.35 161.535 183.645 159.765 183.841C152.777 184.428 145.593 183.939 138.802 182.078C132.013 180.216 125.518 177.083 120.007 172.773C116.661 170.226 113.61 167.288 110.855 164.057C108.1 160.824 105.737 157.2 103.769 153.38C99.7346 145.74 97.7664 137.122 97.668 128.601C97.668 123.899 98.2584 119.198 99.2425 114.693C100.325 110.187 101.9 105.682 104.064 101.568C105.049 99.413 106.427 97.552 107.607 95.4952C108.985 93.6343 110.362 91.6755 111.937 90.0105C114.989 86.4844 118.53 83.4482 122.369 80.7059C131.718 74.1436 143.035 70.2259 154.549 69.7361C156.713 69.5403 158.878 69.7361 161.044 69.8341C162.126 69.8341 163.208 70.0299 164.291 70.2259C165.374 70.4217 166.456 70.4217 167.539 70.7156C169.605 71.2053 171.77 71.5971 173.837 72.3806C174.821 72.7724 175.903 73.0662 176.888 73.458L179.84 74.7312L181.316 75.4168L182.693 76.2004L185.547 77.7675L188.205 79.5305C189.09 80.1181 189.976 80.7059 190.861 81.3914L193.421 83.4482C194.207 84.1338 194.994 84.9174 195.782 85.701C197.357 87.17 198.734 88.8351 200.112 90.4022C204.344 95.5932 207.591 101.47 209.756 107.739C211.921 114.007 212.806 120.667 212.414 127.327C212.217 130.265 211.921 133.106 211.232 136.044C209.953 141.431 208.378 144.762 207.099 146.916C205.82 149.071 204.737 150.148 203.655 150.834C203.162 151.127 202.572 151.618 202.179 151.716C201.489 151.911 201.588 150.932 202.277 149.169C202.965 147.405 204.049 144.663 205.328 141.137C207.099 135.946 208.083 130.363 208.083 124.781C207.984 119.198 207.099 113.615 205.229 108.228C203.359 102.939 200.604 97.8458 196.963 93.3405C193.421 88.8351 188.991 85.0154 184.169 81.9791C180.529 79.7263 176.691 77.7675 172.558 76.5922C170.589 75.8086 168.424 75.5148 166.357 75.025C165.275 74.8292 164.193 74.7312 163.208 74.6334L161.634 74.4374C161.142 74.4374 160.551 74.4374 160.059 74.3395C151.498 73.6539 142.739 75.4168 134.768 78.7469Z" fill="#0A4020"/>
<path d="M68.6304 102.263C82.0068 102.263 92.8506 91.4189 92.8506 78.0425C92.8506 64.666 82.0068 53.8223 68.6304 53.8223C55.2539 53.8223 44.4102 64.666 44.4102 78.0425C44.4102 91.4189 55.2539 102.263 68.6304 102.263Z" fill="#ADFFD8"/>
<path fill-rule="evenodd" clip-rule="evenodd" d="M76.2161 85.6022C78.0858 83.3494 79.0699 79.8235 78.7747 76.4934C78.6762 75.318 78.2827 74.1428 77.7906 73.0654C76.3144 69.2455 71.4924 67.1887 66.9655 68.0703C64.9974 68.4621 63.0292 69.4415 61.4547 70.7147C59.3881 72.3798 58.0103 74.6324 57.0263 77.081C56.731 77.8646 56.1406 77.6687 55.7469 76.7872C55.3533 75.9058 55.1564 74.1428 56.0422 72.5756C59.0929 66.699 66.2767 63.369 72.9685 65.132C74.9368 65.6216 76.8065 66.5032 78.4794 67.8743C80.1524 69.2455 81.3333 71.1065 82.0221 72.9674C83.5968 77.179 83.3999 81.6843 81.7269 85.798C80.6445 88.3445 78.7747 90.4013 76.8065 92.0663C73.8542 94.6129 70.6067 96.3758 68.1465 98.7265C67.1624 99.608 66.2767 100.686 65.6862 101.665C65.0958 102.742 64.7022 103.82 64.3085 105.093C64.1117 105.681 64.0133 106.268 63.7181 106.856C62.8324 109.109 62.0451 109.598 60.6674 109.5C60.3722 109.5 59.9785 109.5 59.6833 109.403C58.6992 109.109 58.404 107.933 58.6992 106.366C58.9944 105.191 59.1912 104.016 59.5848 102.742C59.9785 101.469 60.6674 99.9019 61.553 98.5306C63.4229 95.8862 65.6862 94.1232 67.8513 92.4581C71.0988 90.1075 74.1495 88.0507 75.9209 85.6022H76.2161Z" fill="#0A4020"/>
<path fill-rule="evenodd" clip-rule="evenodd" d="M60.3675 119.49C60.3675 119.588 60.3675 119.686 60.3675 119.784C60.1707 121.841 58.5961 122.526 56.7264 122.331C54.1678 122.037 53.1837 119.197 54.5613 117.238C56.5296 114.398 60.3675 116.455 60.3675 119.49Z" fill="#0A4020"/>
<path fill-rule="evenodd" clip-rule="evenodd" d="M135.84 180.411C141.155 182.273 146.764 183.349 152.472 183.447C154.538 183.447 156.605 183.447 158.672 183.154L161.427 182.86C162.312 182.762 163.198 182.566 164.083 182.371L166.741 181.88C167.626 181.684 168.513 181.391 169.398 181.195L172.448 180.313C172.842 180.02 173.039 180.509 173.432 180.706L174.121 181.293L175.105 182.175C175.794 182.664 176.581 183.154 177.369 183.644C178.156 184.035 179.042 184.427 179.829 184.818C182.782 185.994 186.028 186.484 189.276 186.582C193.41 186.68 197.542 186.092 201.578 185.309C202.857 185.015 202.857 185.7 201.873 186.484C200.889 187.267 198.92 188.345 196.46 188.638C192.032 189.129 187.505 189.129 183.076 188.149C180.813 187.66 178.747 186.876 176.68 185.798C175.696 185.211 174.712 184.623 173.728 183.938L172.448 182.86C172.252 182.762 172.35 182.762 172.35 182.762L172.252 182.664C172.252 182.664 172.153 182.664 172.055 182.664C167.134 184.133 161.624 185.309 156.309 185.602C150.405 185.896 144.401 185.211 138.694 183.644C137.809 183.349 136.923 183.154 136.037 182.86L133.478 181.88C131.708 181.293 130.132 180.411 128.459 179.628C123.54 177.081 119.11 173.85 115.175 170.03C112.222 166.994 109.368 163.859 107.203 160.333C106.711 159.549 106.219 158.766 105.727 157.982C104.054 154.946 103.759 153.869 104.054 152.987C104.153 152.791 104.153 152.497 104.251 152.4C104.546 151.91 105.53 152.987 106.711 155.142C110.352 161.411 115.076 167.483 121.079 172.184C125.408 175.71 130.427 178.551 135.84 180.411Z" fill="#0A4020"/>
<path fill-rule="evenodd" clip-rule="evenodd" d="M70.797 159.646L69.7145 159.548H69.6161L68.3367 161.311C67.2542 162.487 66.0734 163.76 64.7941 164.838C63.9083 165.622 62.9242 166.405 62.0386 167.091C58.5942 169.538 54.8547 171.302 51.0168 172.869C49.3438 173.554 47.5724 174.24 45.8995 174.925C43.7344 175.709 41.5695 176.591 39.2076 176.885C37.7315 177.081 39.1092 174.534 41.471 173.849C45.8995 172.478 50.2295 170.91 54.461 169.049C57.0197 167.874 59.4799 166.307 61.6449 164.544C62.2354 164.054 62.8258 163.564 63.4163 163.075C64.0068 162.584 64.5972 162.095 65.0893 161.508C65.5813 160.92 66.1717 160.43 66.6638 159.842L68.2383 157.688L68.4352 157.492H68.7304H69.3208H70.2065L71.6827 157.59C72.6667 157.59 73.6508 157.688 74.6349 157.688C77.5872 157.688 80.5395 157.59 83.3933 157.1C85.6567 156.708 87.7233 155.925 89.6915 155.043L90.9709 154.357C92.5454 153.574 93.1359 153.379 93.8247 153.672C93.9232 153.77 94.1199 153.77 94.2184 153.868C94.612 154.161 94.1199 154.945 92.9391 155.63C89.3963 157.884 84.9679 159.255 80.5395 159.646C77.292 159.842 74.0445 159.842 70.797 159.646Z" fill="#0A4020"/>
<path d="M143.129 51.3218C143.129 50.5382 143.72 49.9506 144.408 49.9506C148.05 49.7546 143.228 55.1415 143.129 51.3218Z" stroke="#0A4020" stroke-width="0.6"/>
<path d="M85.6641 179.628C85.6641 178.844 86.2545 178.257 86.9434 178.257C90.5845 178.159 85.7625 183.448 85.6641 179.628Z" stroke="#0A4020" stroke-width="0.6"/>
<path fill-rule="evenodd" clip-rule="evenodd" d="M177.867 40.4508C178.458 40.6466 178.852 41.2344 178.655 41.822C177.966 44.8583 174.718 39.6672 177.867 40.4508Z" fill="#0A4020"/>
<path d="M162.265 152.784C174.928 151.135 183.895 139.927 182.295 127.753C180.693 115.578 169.129 107.046 156.465 108.696C143.802 110.346 134.833 121.553 136.435 133.728C138.037 145.903 149.601 154.434 162.265 152.784Z" fill="#FFF7B1"/>
<path d="M166.257 103.625C166.355 103.331 164.682 102.352 161.238 101.862C159.565 101.666 157.399 101.568 154.94 102.058C152.479 102.548 149.724 103.429 146.968 105.094C144.311 106.759 141.654 109.208 139.489 112.244C137.324 115.28 135.651 119.1 134.765 123.214C133.88 127.425 133.978 132.028 135.454 136.632C136.241 138.884 137.226 141.137 138.603 143.195C139.981 145.251 141.654 147.209 143.622 148.777C145.197 150.149 146.968 151.127 148.74 152.107C150.609 152.989 152.479 153.674 154.447 154.163C159.466 155.339 164.584 154.849 169.012 153.283C173.44 151.618 177.377 148.973 180.132 145.642C181.608 144.075 182.592 142.215 183.577 140.452C183.969 139.57 184.363 138.591 184.757 137.71C185.053 136.73 185.447 135.848 185.545 134.967C186.43 131.245 186.332 127.719 185.741 124.585C185.151 121.451 184.069 118.806 182.887 116.651C181.707 114.497 180.329 112.832 179.148 111.559C176.786 109.11 175.113 108.228 174.916 108.424C174.719 108.718 175.999 109.893 177.967 112.538C179.837 115.182 182.297 119.296 183.084 124.976C183.478 127.817 183.38 130.952 182.493 134.183C182.297 134.967 182.002 135.75 181.707 136.632C181.411 137.415 181.017 138.199 180.624 138.982C179.738 140.55 178.754 142.117 177.475 143.488C175.015 146.329 171.669 148.581 167.831 149.952C163.993 151.225 159.565 151.618 155.332 150.54C153.562 150.149 151.986 149.56 150.413 148.777C148.936 147.993 147.361 147.111 146.082 145.937C144.409 144.566 142.933 142.9 141.753 141.235C140.572 139.473 139.686 137.612 138.997 135.652C137.717 131.735 137.521 127.719 138.21 123.998C138.899 120.275 140.276 116.946 142.146 114.105C144.015 111.265 146.279 109.11 148.543 107.445C150.904 105.78 153.267 104.898 155.431 104.311C157.596 103.723 159.565 103.527 161.139 103.527C164.387 103.527 166.158 104.017 166.257 103.625Z" fill="#0A4020"/>
<path d="M168.924 122.723C168.826 122.43 168.433 122.233 167.645 122.332C166.859 122.43 165.775 122.822 164.595 123.704C163.513 124.585 162.429 125.759 161.446 127.131C160.462 128.502 159.477 130.07 158.494 131.637C158.297 131.93 158.1 132.323 157.903 132.616C157.706 132.91 157.509 133.3 157.312 133.595C156.525 134.87 156.821 134.477 156.722 134.575C156.722 134.575 156.722 134.575 156.624 134.575L156.427 134.476C155.737 134.084 155.148 133.791 154.557 133.497C153.376 132.909 152.294 132.518 151.309 132.224C149.439 131.636 148.259 131.733 148.062 132.224C147.865 132.713 148.751 133.399 150.326 134.476C151.112 134.966 151.999 135.651 153.081 136.338C153.573 136.729 154.163 137.024 154.655 137.415C155.148 137.71 155.64 138.101 156.131 138.493C156.722 138.884 157.312 139.374 158.001 139.765C158.886 138.394 159.773 137.023 160.658 135.554C160.855 135.26 161.052 134.87 161.249 134.575C161.446 134.281 161.643 133.889 161.84 133.595C162.823 131.929 163.71 130.362 164.496 128.991C165.283 127.62 165.972 126.544 166.662 125.662C167.744 123.998 169.023 123.408 168.924 122.723Z" fill="#0A4020"/>
<path d="M2.11071 50.0501C2.40593 50.246 2.79958 50.1481 3.29157 49.9522C3.78367 49.7563 4.57086 49.5604 5.25973 49.5604C5.94861 49.5604 6.53903 49.9522 6.93269 50.5398C7.03113 50.8336 7.12958 51.1275 7.03113 51.6172C6.93269 52.107 6.73592 52.6946 6.44071 53.2822C6.34226 53.4782 6.14549 53.772 6.04705 53.9678C5.85016 54.1638 5.75184 54.3596 5.55495 54.6534C5.25974 54.9473 5.06296 55.2411 4.86608 55.437L4.76775 55.5349C4.76775 55.5349 4.76775 55.5349 4.66931 55.5349C4.57086 55.5349 4.66931 55.6329 4.47254 55.3391C4.27565 55.1432 4.07888 54.9473 3.88199 54.6534C3.68522 54.4576 3.48845 54.1638 3.29157 53.9678C2.99635 53.576 2.79958 53.1843 2.6027 52.7926C2.30748 52.107 2.20904 51.5192 2.20904 50.9316C2.40593 50.6378 2.40593 50.246 2.11071 50.0501C1.91383 49.8542 1.42184 49.9522 0.929741 50.4419C0.339314 50.9316 -0.152786 52.107 0.0441012 53.576C0.142428 54.2617 0.339314 55.0452 0.634528 55.7308C0.831298 56.1226 0.929741 56.4165 1.12663 56.7103C1.3234 57.0041 1.52017 57.3959 1.8155 57.7877C2.01227 58.0815 2.70114 58.7671 3.29157 59.0609C3.98044 59.4527 4.66931 59.5506 5.45662 59.3547C5.85016 59.2568 6.14549 59.1589 6.53903 58.8651C6.73592 58.7671 6.83436 58.6691 7.03113 58.4733L7.2279 58.2773L7.42479 58.1795C7.81845 57.7877 8.11366 57.3959 8.40887 57.1021C8.60564 56.8083 8.90086 56.4165 9.09774 56.1226C9.29452 55.7308 9.4914 55.437 9.68817 55.0452C10.1803 54.0658 10.4755 53.0864 10.5738 52.009C10.6723 50.9316 10.377 49.6583 9.68817 48.6789C8.9993 47.6995 8.11366 47.2097 7.2279 46.9159C6.24382 46.6221 5.35818 46.7201 4.66931 46.9159C3.29157 47.3077 2.50425 48.1892 2.11071 48.7769C1.8155 49.3645 1.91383 49.8542 2.11071 50.0501Z" fill="#0A4020"/>
<path d="M189.982 211.948C190.278 212.144 190.67 212.046 191.163 211.85C191.655 211.654 192.442 211.459 193.131 211.459C193.821 211.459 194.41 211.85 194.804 212.439C194.903 212.732 195.001 213.026 194.903 213.515C194.804 214.005 194.607 214.593 194.312 215.181C194.213 215.377 194.016 215.67 193.918 215.866C193.722 216.062 193.624 216.257 193.427 216.552C193.131 216.846 192.934 217.139 192.737 217.335L192.639 217.433C192.639 217.433 192.639 217.433 192.54 217.433C192.442 217.433 192.54 217.531 192.343 217.237C192.148 217.041 191.951 216.846 191.754 216.552C191.557 216.355 191.36 216.062 191.163 215.866C190.867 215.475 190.67 215.083 190.475 214.69C190.179 214.005 190.081 213.417 190.081 212.83C190.179 212.634 190.179 212.144 189.982 211.948C189.785 211.752 189.293 211.85 188.802 212.341C188.211 212.83 187.718 214.005 187.915 215.475C188.014 216.16 188.211 216.944 188.506 217.629C188.703 218.021 188.802 218.315 188.997 218.608C189.194 218.902 189.391 219.295 189.687 219.686C189.884 219.98 190.573 220.666 191.163 220.959C191.852 221.351 192.54 221.449 193.328 221.253C193.722 221.155 194.016 221.057 194.41 220.764C194.607 220.666 194.706 220.568 194.903 220.371L195.1 220.175L195.297 220.077C195.689 219.686 195.985 219.295 196.28 219C196.477 218.706 196.773 218.315 196.97 218.021C197.167 217.629 197.362 217.335 197.559 216.944C198.052 215.964 198.347 214.984 198.446 213.908C198.544 212.83 198.249 211.557 197.559 210.577C196.871 209.598 195.985 209.108 195.1 208.814C194.115 208.521 193.23 208.618 192.54 208.814C191.163 209.206 190.376 210.088 189.982 210.675C189.687 211.361 189.687 211.85 189.982 211.948Z" fill="#A8A8A8"/>
<path d="M242.517 135.652C242.812 135.847 243.206 135.749 243.697 135.554C244.19 135.358 244.976 135.162 245.666 135.162C246.355 135.162 246.945 135.554 247.339 136.141C247.437 136.436 247.536 136.729 247.437 137.218C247.339 137.709 247.142 138.296 246.846 138.883C246.748 139.08 246.552 139.374 246.453 139.569C246.256 139.765 246.158 139.961 245.961 140.254C245.666 140.549 245.469 140.843 245.272 141.039L245.173 141.136C245.173 141.136 245.173 141.136 245.075 141.136C244.976 141.136 245.075 141.234 244.879 140.941C244.682 140.745 244.485 140.549 244.288 140.254C244.091 140.059 243.894 139.765 243.697 139.569C243.403 139.178 243.206 138.785 243.009 138.394C242.714 137.709 242.615 137.121 242.615 136.533C242.812 136.239 242.812 135.847 242.517 135.652C242.32 135.456 241.827 135.554 241.336 136.043C240.745 136.533 240.253 137.709 240.45 139.178C240.548 139.863 240.745 140.647 241.041 141.332C241.237 141.724 241.336 142.018 241.533 142.312C241.73 142.605 241.926 142.997 242.221 143.39C242.418 143.683 243.107 144.368 243.697 144.663C244.387 145.054 245.075 145.152 245.863 144.956C246.256 144.859 246.552 144.761 246.945 144.466C247.142 144.368 247.24 144.27 247.437 144.075L247.634 143.879L247.831 143.781C248.225 143.39 248.519 142.997 248.815 142.703C249.012 142.41 249.307 142.018 249.504 141.724C249.701 141.332 249.897 141.039 250.094 140.647C250.586 139.667 250.882 138.688 250.98 137.61C251.079 136.533 250.783 135.26 250.094 134.28C249.406 133.301 248.519 132.811 247.634 132.518C246.649 132.224 245.764 132.322 245.075 132.518C243.697 132.909 242.91 133.791 242.517 134.378C242.32 135.064 242.32 135.456 242.517 135.652Z" fill="#0A4020"/>
<path d="M118.623 203.136C117.442 202.645 116.655 203.234 116.065 204.213C116.065 204.311 116.065 204.311 115.966 204.409C115.966 204.507 115.966 204.507 115.868 204.605C115.474 205.682 115.671 206.661 116.852 207.152C117.935 207.641 118.82 207.054 119.411 206.074C119.411 205.976 119.411 205.976 119.509 205.878C119.509 205.78 119.608 205.78 119.608 205.682C119.902 204.605 119.705 203.527 118.623 203.136Z" fill="#A8A8A8"/>
<path d="M22.3857 167.483C21.5001 168.365 21.6968 169.343 22.3857 170.127L22.4841 170.225L22.5826 170.323C23.3698 171.009 24.2555 171.205 25.2396 170.323C26.0268 169.54 25.9285 168.463 25.2396 167.679L25.1412 167.58L25.0427 167.483C24.2555 166.798 23.2713 166.601 22.3857 167.483Z" fill="#A8A8A8"/>
<path d="M69.9134 0C69.323 0 68.8309 0.685604 68.7324 1.66503C68.6341 2.64447 68.7324 4.11362 69.323 5.68072C69.4213 5.8766 69.4213 5.97455 69.5197 6.17043C69.6182 6.26837 69.6182 6.46426 69.7165 6.66014C70.4054 8.1293 71.2911 9.30462 72.0783 9.89228C72.8657 10.5779 73.653 10.6758 74.145 10.284C75.0307 9.50051 74.145 7.54164 73.1609 5.19099L72.9641 4.70128L72.8657 4.30951C71.7831 1.95887 71.0943 0 69.9134 0Z" fill="#A8A8A8"/>
<path d="M131.716 37.1201C130.829 36.2386 129.452 36.8263 128.074 38.0995C127.976 38.1975 127.976 38.1975 127.877 38.2955C127.779 38.3933 127.779 38.3933 127.68 38.4913C126.401 39.8625 125.81 41.2337 126.697 42.1152C127.483 42.8988 128.959 42.409 130.338 41.1358C130.435 41.0379 130.435 41.0379 130.534 40.9399C130.632 40.8419 130.632 40.842 130.731 40.744C132.01 39.3728 132.601 37.9037 131.716 37.1201Z" fill="#A8A8A8"/>
<path d="M214.467 52.8901C213.582 52.0087 213.09 51.7149 212.893 51.8129C212.794 52.0087 213.09 52.4985 213.976 53.3799C214.763 54.1635 215.354 54.5552 215.551 54.4573C215.648 54.2614 215.354 53.6737 214.467 52.8901Z" fill="#A8A8A8"/>
<path d="M190.857 21.2539C190.562 21.2539 190.267 22.5272 189.774 24.78C189.577 25.8573 189.283 27.2285 188.889 28.7956C188.495 30.3627 188.004 32.1257 187.118 33.7907C186.724 34.6722 186.134 35.4558 185.445 36.1414C184.756 36.827 183.968 37.4146 183.083 37.9043C181.312 38.7858 178.851 39.0796 176.49 38.394C174.127 37.8064 171.865 36.3372 170.389 34.1825C169.699 33.1051 169.207 31.9298 169.207 30.7545C169.108 29.5791 169.404 28.2079 170.093 27.2285C170.584 26.445 171.274 25.7594 172.159 25.3676C172.553 25.1716 172.947 25.1716 173.242 25.1716C173.538 25.1716 173.735 25.2696 174.127 25.4656C174.521 25.7594 174.915 26.249 175.308 26.7388C175.603 27.2285 175.899 27.8162 176.096 28.4038C176.49 29.5791 176.49 30.9503 176.293 32.2236C175.997 33.4969 175.603 34.5742 174.817 35.5536C174.127 36.5332 173.144 37.4146 172.159 38.1982C170.093 39.6673 167.731 40.7447 165.468 41.6261C163.204 42.5077 161.137 43.1933 159.17 43.7809C155.233 44.8583 151.986 45.348 149.722 45.7398C147.459 46.1316 146.18 46.3274 146.18 46.6212C146.18 46.9152 147.459 47.209 149.82 47.3068C152.182 47.4048 155.627 47.3068 159.858 46.4254C161.925 46.0336 164.286 45.446 166.649 44.5645C169.01 43.683 171.668 42.8015 174.226 41.0385C175.505 40.1571 176.785 39.0796 177.769 37.7084C178.261 37.0228 178.753 36.2392 179.146 35.4558C179.54 34.6722 179.737 33.7907 179.934 32.9092C180.327 31.1463 180.327 29.2853 179.737 27.4244C179.442 26.5429 179.048 25.5634 178.556 24.78C177.966 23.9964 177.375 23.1149 176.391 22.4293C175.603 21.8416 174.521 21.4498 173.538 21.4498C172.553 21.4498 171.569 21.6457 170.781 21.9396C169.207 22.6252 167.829 23.8004 166.944 25.2696C165.861 27.0326 165.468 29.0895 165.565 31.0483C165.664 33.0072 166.452 34.868 167.435 36.3372C169.502 39.3735 172.651 41.0385 175.702 41.8221C177.276 42.2139 178.851 42.2139 180.327 42.0179C181.803 41.8221 183.279 41.4303 184.559 40.6467C185.838 39.8632 186.921 38.9817 187.708 38.0022C188.495 36.9248 189.184 35.9454 189.577 34.868C190.464 32.8113 190.857 30.8523 191.054 29.0895C191.25 27.4244 191.349 25.9552 191.25 24.78C191.349 22.5272 191.153 21.2539 190.857 21.2539Z" fill="#0A4020"/>
</g>
<defs>
<clipPath id="clip0_2032_5923">
<rect width="251" height="222" fill="white"/>
</clipPath>
</defs>
</svg>
